<svg id="visual" viewBox="0 0 1500 600" width="1500" height="600" xmlns="http://www.w3.org/2000/svg" xmlns:xlink="http://www.w3.org/1999/xlink" version="1.1"><rect x="0" y="0" width="1500" height="600" fill="#e7b687"></rect><defs><linearGradient id="grad1_0" x1="60%" y1="100%" x2="100%" y2="0%"><stop offset="0%" stop-color="#e7b687" stop-opacity="1"></stop><stop offset="100%" stop-color="#e7b687" stop-opacity="1"></stop></linearGradient></defs><defs><linearGradient id="grad2_0" x1="0%" y1="100%" x2="40%" y2="0%"><stop offset="0%" stop-color="#e7b687" stop-opacity="1"></stop><stop offset="100%" stop-color="#e7b687" stop-opacity="1"></stop></linearGradient></defs><g transform="translate(1500, 600)"><path d="M-600 0C-556.9 -43.7 -513.9 -87.4 -497.5 -133.3C-481 -179.1 -491.2 -227.1 -487.6 -281.5C-484 -335.9 -466.7 -396.7 -424.3 -424.3C-381.9 -451.8 -314.4 -446.1 -264.5 -458.1C-214.6 -470.1 -182.2 -499.8 -141.1 -526.4C-99.9 -553 -49.9 -576.5 0 -600L0 0Z" fill="#f9c492"></path></g><g transform="translate(0, 0)"><path d="M600 0C553.7 42.5 507.5 84.9 493.6 132.3C479.7 179.6 498.2 231.8 495.4 286C492.5 340.2 468.4 396.5 424.3 424.3C380.1 452 316 451.3 266 460.7C216 470.2 179.9 489.9 138 514.8C96 539.8 48 569.9 0 600L0 0Z" fill="#f9c492"></path></g></svg>