<svg id="visual" viewBox="0 0 1500 600" width="1500" height="600" xmlns="http://www.w3.org/2000/svg" xmlns:xlink="http://www.w3.org/1999/xlink" version="1.1"><rect x="0" y="0" width="1500" height="600" fill="#e7b687"></rect><defs><linearGradient id="grad1_0" x1="60%" y1="100%" x2="100%" y2="0%"><stop offset="0%" stop-color="#e7b687" stop-opacity="1"></stop><stop offset="100%" stop-color="#e7b687" stop-opacity="1"></stop></linearGradient></defs><defs><linearGradient id="grad2_0" x1="0%" y1="100%" x2="40%" y2="0%"><stop offset="0%" stop-color="#e7b687" stop-opacity="1"></stop><stop offset="100%" stop-color="#e7b687" stop-opacity="1"></stop></linearGradient></defs><g transform="translate(1500, 600)"><path d="M-600 0C-597 -84.1 -594 -168.3 -554.3 -229.6C-514.7 -291 -438.4 -329.5 -379.7 -379.7C-321 -429.9 -280 -491.7 -219.7 -530.3C-159.3 -569 -79.7 -584.5 0 -600L0 0Z" fill="#f9c492"></path></g><g transform="translate(0, 0)"><path d="M600 0C567 67.3 534 134.6 510.9 211.6C487.8 288.6 474.5 375.4 424.3 424.3C374.1 473.2 287 484.2 210.1 507.2C133.2 530.2 66.6 565.1 0 600L0 0Z" fill="#f9c492"></path></g></svg>