<svg id="visual" viewBox="0 0 600 600" width="600" height="600" xmlns="http://www.w3.org/2000/svg" xmlns:xlink="http://www.w3.org/1999/xlink" version="1.1"><rect x="0" y="0" width="600" height="600" fill="#001220"></rect><defs><linearGradient id="grad1_0" x1="0%" y1="100%" x2="100%" y2="0%"><stop offset="30%" stop-color="#001220" stop-opacity="1"></stop><stop offset="70%" stop-color="#001220" stop-opacity="1"></stop></linearGradient></defs><defs><linearGradient id="grad2_0" x1="0%" y1="100%" x2="100%" y2="0%"><stop offset="30%" stop-color="#001220" stop-opacity="1"></stop><stop offset="70%" stop-color="#001220" stop-opacity="1"></stop></linearGradient></defs><g transform="translate(600, 600)"><path d="M-381.8 0C-369.5 -47.5 -357.2 -95 -340 -140.8C-322.7 -186.7 -300.5 -230.9 -268 -268C-235.4 -305.1 -192.5 -335 -146.1 -352.8C-99.7 -370.6 -49.9 -376.2 0 -381.8L0 0Z" fill="#FBAE3C"></path></g><g transform="translate(0, 0)"><path d="M381.8 0C379 51.6 376.2 103.1 352.8 146.1C329.3 189.1 285.3 223.6 242.5 242.5C199.8 261.5 158.4 264.9 118.2 285.5C78.1 306.1 39 344 0 381.8L0 0Z" fill="#FBAE3C"></path></g></svg>