<svg id="visual" viewBox="0 0 600 600" width="600" height="600" xmlns="http://www.w3.org/2000/svg" xmlns:xlink="http://www.w3.org/1999/xlink" version="1.1"><rect x="0" y="0" width="600" height="600" fill="#001220"></rect><defs><linearGradient id="grad1_0" x1="0%" y1="100%" x2="100%" y2="0%"><stop offset="30%" stop-color="#001220" stop-opacity="1"></stop><stop offset="70%" stop-color="#001220" stop-opacity="1"></stop></linearGradient></defs><defs><linearGradient id="grad2_0" x1="0%" y1="100%" x2="100%" y2="0%"><stop offset="30%" stop-color="#001220" stop-opacity="1"></stop><stop offset="70%" stop-color="#001220" stop-opacity="1"></stop></linearGradient></defs><g transform="translate(600, 600)"><path d="M-381.8 0C-341.8 -34.4 -301.7 -68.7 -290.1 -120.2C-278.5 -171.6 -295.2 -240.2 -270 -270C-244.8 -299.8 -177.5 -290.9 -125.5 -303C-73.5 -315.2 -36.8 -348.5 0 -381.8L0 0Z" fill="#FBAE3C"></path></g><g transform="translate(0, 0)"><path d="M381.8 0C381.6 55.2 381.4 110.4 352.8 146.1C324.2 181.9 267.3 198.2 229.8 229.8C192.4 261.4 174.4 308.4 139.3 336.3C104.2 364.2 52.1 373 0 381.8L0 0Z" fill="#FBAE3C"></path></g></svg>