<svg xml:space="preserve" style="enable-background:new 0 0 2251 1278;" viewBox="0 0 2251 1278" y="0px" x="0px" xmlns:xlink="http://www.w3.org/1999/xlink" xmlns="http://www.w3.org/2000/svg" id="Layer_1" version="1.1">
<style type="text/css">
	.st0{fill:#155360;}
</style>
<g>
	<g>
		<path d="M1474.82,716.75c4.08,16.7-2.95,34.03-17.96,42.68c-14,8.06-31.86,6.97-44.87-2.52
			c-13.24-9.65-19.51-27.35-14.45-43.08c5.25-16.31,21.22-27.03,38.18-26.94C1453.97,687,1469.9,699.25,1474.82,716.75
			c0.72,2.55,4.18-1.23,3.64-3.13c-5.02-17.85-20.9-30.76-39.56-31.5c-18.13-0.71-35.14,10.06-42.73,26.44
			c-7.74,16.69-4.35,37.02,9.26,49.65c13.73,12.74,34.57,14.89,50.89,5.88c17.82-9.84,26.96-30.76,22.14-50.47
			C1477.84,711.08,1474.36,714.85,1474.82,716.75z" class="st0"></path>
	</g>
	<g>
		<path d="M1416.38,719.71c0.15,0.38,0.31,0.78,0.38,1.19c0.17,1-0.48,0.4,0.56-0.72c0.31-0.27,0.62-0.53,0.93-0.8
			c0.67-0.41,0.36,0.17,0.09-0.29c-0.19-0.33-0.51-0.61-0.72-0.95c-0.24-0.39-0.41-0.81-0.53-1.25c-0.06-0.2-0.1-0.39-0.13-0.6
			c0.03-0.78-0.15-0.47-0.53,0.93c-0.31,0.27-0.62,0.53-0.93,0.8c-0.47,0.28-0.46-0.05,0.01,0.4
			C1415.87,718.77,1416.17,719.27,1416.38,719.71c1.13,2.48,4.46-1.34,3.64-3.13c-0.78-1.71-2.3-4.14-4.5-2.93
			c-2.5,1.38-2.76,4.8-1.78,7.18c0.68,1.67,2.31,4.11,4.42,2.98c2.6-1.38,2.81-4.79,1.87-7.23
			C1419.05,714.06,1415.66,717.87,1416.38,719.71z" class="st0"></path>
	</g>
	<g>
		<path d="M1443.35,707.96c0.16,0.41,0.24,0.87,0.4,1.27c0.13,0.33-0.07,0.32,0.09-0.02c0.23-0.4,0.47-0.81,0.7-1.21
			c-0.04,0.04-0.07,0.09-0.11,0.13c0.31-0.27,0.62-0.53,0.93-0.8c0.78-0.5,0.56,0.17,0.35-0.32c-0.15-0.36-0.53-0.69-0.72-1.05
			c-0.22-0.42-0.39-0.88-0.49-1.34c-0.12-0.57,0.02-0.46-0.13-0.15c-0.23,0.4-0.47,0.81-0.7,1.21c0.04-0.04,0.07-0.09,0.11-0.13
			c-0.31,0.27-0.62,0.53-0.93,0.8c-0.48,0.31-0.71-0.07-0.26,0.43C1442.91,707.12,1443.17,707.55,1443.35,707.96
			c1.12,2.48,4.45-1.33,3.64-3.13c-0.71-1.58-2.06-3.99-4.14-2.85c-2.43,1.34-2.56,4.6-1.62,6.87c0.63,1.53,2.07,3.98,4.07,2.89
			c2.5-1.36,2.6-4.58,1.69-6.92C1446.01,702.31,1442.63,706.12,1443.35,707.96z" class="st0"></path>
	</g>
	<g>
		<path d="M1416.11,742.52c6.27,11.63,20.07,18.32,32.58,12.18c13.47-6.61,15.62-23.28,10.97-36.14
			c-0.92-2.53-4.32,1.27-3.64,3.13c4.3,11.87,2.37,27.54-12.25,30.23c-10.37,1.91-19.64-4.55-24.4-13.38
			C1418.33,736.62,1415.14,740.71,1416.11,742.52L1416.11,742.52z" class="st0"></path>
	</g>
	<g>
		<path d="M1406.96,387.35c-0.29,17.07-11.69,31.69-28.13,36.32c-15.64,4.4-32.98-0.9-43.28-13.5
			c-10.49-12.84-12.09-31.54-2.78-45.49c9.2-13.78,26.78-19.97,42.74-16.22C1393.62,352.7,1406.65,368.79,1406.96,387.35
			c0.05,3.09,3.82-0.1,3.79-2.1c-0.31-18.72-12.38-35.26-30.4-40.77c-17.55-5.37-37.08,1.1-48.21,15.63
			c-10.96,14.31-12.54,34.36-2.9,49.78c9.87,15.77,29.42,23.29,47.38,18.85c19.9-4.92,33.78-23.19,34.12-43.49
			C1410.8,382.18,1406.99,385.37,1406.96,387.35z" class="st0"></path>
	</g>
	<g>
		<path d="M1349.68,375.36c0.04,0.32-0.08,1.13,0.03,1.39c-0.2-0.45,1.55-1.9,1.62-1.52c-0.03-0.15-0.34-0.48-0.4-0.61
			c-0.17-0.37-0.27-0.81-0.33-1.22c-0.04-0.29,0.09-0.9-0.01-1.13c0.22,0.5-1.59,1.63-1.62,1.52c0.05,0.2,0.3,0.41,0.4,0.61
			c0.21,0.45,0.29,0.98,0.38,1.47c0.21,1.23,1.69,0.81,2.34,0.26c0.97-0.82,1.52-2.14,1.31-3.39c-0.3-1.75-1.42-4.51-3.68-3.6
			c-2.54,1.02-3.18,4.49-2.84,6.88c0.24,1.69,1.22,4.61,3.47,3.95c2.63-0.77,3.38-4.39,3.12-6.72
			C1353.12,370.15,1349.45,373.33,1349.68,375.36z" class="st0"></path>
	</g>
	<g>
		<path d="M1378.76,370.85c0.05,0.39,0.04,0.77,0.07,1.16c0.08,0.92-1.06,0.32,0.73-0.98c0.32-0.18,0.64-0.36,0.96-0.53
			c0.51-0.16,0.46,0.35,0.1-0.32c-0.14-0.26-0.21-0.56-0.28-0.84c-0.09-0.35-0.14-0.69-0.15-1.05c-0.01-0.15-0.01-0.31,0-0.46
			c0.19-0.8-0.06-0.45-0.74,1.07c-0.32,0.18-0.64,0.36-0.96,0.53c-0.49,0.16-0.44-0.36-0.07,0.4c0.23,0.47,0.32,1.03,0.4,1.54
			c0.21,1.23,1.69,0.81,2.34,0.26c0.97-0.82,1.52-2.14,1.31-3.39c-0.27-1.62-1.19-4.28-3.33-3.43c-2.46,0.98-2.95,4.35-2.63,6.63
			c0.22,1.54,1.01,4.39,3.12,3.78c2.55-0.73,3.16-4.24,2.91-6.47C1382.18,365.65,1378.52,368.83,1378.76,370.85z" class="st0"></path>
	</g>
	<g>
		<path d="M1343.62,397.41c3.17,13.08,15.17,23.47,29.14,20.06c14.12-3.44,19.73-19.12,18.54-32.22
			c-0.28-3.1-3.97,0.08-3.79,2.1c1.14,12.61-4.77,26.48-19.36,25.92c-10.75-0.41-18.48-9.06-20.89-19
			C1346.65,391.73,1343.16,395.5,1343.62,397.41L1343.62,397.41z" class="st0"></path>
	</g>
	<g>
		<path d="M1205.23,605.15c6.15,17.61,22.86,29.54,41.65,29.02c18.23-0.5,34.61-12.46,41.1-29.42
			c6.52-17.03,1.75-36.74-12.36-48.45c-14.33-11.88-35.37-12.77-51.01-2.92C1207.35,564.25,1199.14,585.64,1205.23,605.15
			c0.79,2.54,4.23-1.25,3.64-3.13c-5.03-16.1,0.38-33.58,14.36-43.34c13.44-9.38,31.73-9.68,45.53-0.9
			c13.79,8.76,21.08,25.65,17.41,41.66c-3.84,16.77-19.15,28.8-36.14,29.87c-18.26,1.15-35.14-10.06-41.16-27.29
			C1207.99,599.48,1204.58,603.28,1205.23,605.15z" class="st0"></path>
	</g>
	<g>
		<path d="M1255.85,575.77c0.39,1.84,1.7,4.65,4.02,3.42c2.43-1.28,2.91-4.64,2.45-7.06c-0.33-1.76-1.56-4.44-3.78-3.52
			C1255.83,569.74,1255.48,573.29,1255.85,575.77c0.18,1.24,1.71,0.8,2.34,0.26c0.99-0.84,1.49-2.13,1.31-3.39
			c-0.04-0.27,0.02-0.65-0.04-0.87c0.03,0.1-1.82,0.89-1.61,1.49c0.09,0.26,0.39,0.53,0.51,0.8c0.16,0.37,0.28,0.81,0.33,1.2
			c0.03,0.26-0.04,0.63,0.03,0.87c-0.02-0.08,1.85-0.99,1.66-1.47c-0.07-0.18-0.32-0.39-0.43-0.58c-0.24-0.45-0.34-0.96-0.45-1.45
			c-0.26-1.21-1.66-0.83-2.34-0.26C1256.22,573.17,1255.59,574.54,1255.85,575.77z" class="st0"></path>
	</g>
	<g>
		<path d="M1226.83,580.62c0.35,1.69,1.47,4.45,3.66,3.27c2.34-1.27,2.68-4.47,2.24-6.8c-0.31-1.63-1.33-4.21-3.42-3.36
			C1226.69,574.78,1226.47,578.26,1226.83,580.62c0.19,1.24,1.7,0.8,2.34,0.26c0.98-0.83,1.5-2.13,1.31-3.39
			c-0.04-0.27-0.01-0.55-0.04-0.81c-0.09-0.71,1.18-0.42-0.81,1.13c-0.32,0.18-0.64,0.36-0.96,0.53c-0.44-0.15-0.52-0.14-0.24,0.01
			c0,0.11,0.05,0.2,0.16,0.27c0.16,0.25,0.25,0.54,0.33,0.82c0.1,0.34,0.17,0.69,0.21,1.04c0.13,1.4-0.51,0.45,0.82-0.59
			c0.32-0.18,0.64-0.36,0.96-0.53c0.37-0.14,0.32,0.3,0.24-0.01c-0.03-0.13-0.14-0.23-0.2-0.34c-0.26-0.45-0.36-1.02-0.46-1.52
			c-0.25-1.22-1.67-0.83-2.34-0.26C1227.19,578.03,1226.57,579.39,1226.83,580.62z" class="st0"></path>
	</g>
	<g>
		<path d="M1268.36,593.78c0.99,12.36-7.04,24.45-20.5,23.58c-11.29-0.73-18.22-11.43-20.53-21.45
			c-0.59-2.54-4.08,1.22-3.64,3.13c3.06,13.26,13.87,25.99,28.77,22.6c13.47-3.06,20.73-16.93,19.69-29.96
			C1271.9,588.57,1268.2,591.76,1268.36,593.78L1268.36,593.78z" class="st0"></path>
	</g>
	<g>
		<path d="M916.26,455.43c0.18,18.71,12.14,35.36,30.11,40.99c17.52,5.49,37.07-0.84,48.31-15.3
			c11.06-14.23,12.76-34.28,3.24-49.77c-9.75-15.85-29.25-23.5-47.25-19.19C930.72,416.95,916.75,435.13,916.26,455.43
			c-0.07,3.07,3.74-0.12,3.79-2.1c0.41-17.07,11.95-31.59,28.42-36.1c15.67-4.29,32.97,1.15,43.18,13.83
			c10.39,12.91,11.85,31.64,2.43,45.51c-9.31,13.7-26.93,19.76-42.87,15.9c-18.08-4.38-30.98-20.56-31.16-39.13
			C920.02,450.25,916.25,453.43,916.26,455.43z" class="st0"></path>
	</g>
	<g>
		<path d="M973.68,443.27c-0.19,1.63-0.35,5.22,2.08,5.3c2.62,0.09,4.12-3.76,4.44-5.81c0.25-1.62,0.33-5.09-1.98-5.3
			C975.52,437.21,974.05,441.26,973.68,443.27c-0.18,0.97,0.21,2.14,1.4,1.89c1.18-0.25,2.09-1.73,2.29-2.83
			c-0.04,0.19,0.14-0.61,0.11-0.63c0.08,0.05-1.27,0.69-1.17,0.47c0.07-0.14,0.26,0.81,0.23,0.65c0.05,0.27,0.02,0.6-0.01,0.87
			c-0.02,0.13-0.17,0.52-0.11,0.63c-0.14-0.25,1.21-0.71,1.17-0.47c0.01-0.03-0.18-0.42-0.19-0.49c-0.08-0.33-0.06-0.7-0.02-1.04
			c0.12-0.96-0.17-2.15-1.4-1.89C974.84,440.68,973.81,442.18,973.68,443.27z" class="st0"></path>
	</g>
	<g>
		<path d="M944.64,438.55c-0.18,1.47-0.46,4.96,1.79,5.04c2.51,0.09,3.86-3.68,4.16-5.63c0.23-1.46,0.43-4.85-1.71-5.04
			c-1.16-0.11-2.18,0.98-2.78,1.83C945.32,435.88,944.88,437.2,944.64,438.55c-0.17,0.97,0.21,2.14,1.4,1.89
			c1.18-0.24,2.09-1.73,2.29-2.83c-0.01,0.07,0.17-0.86,0.2-0.84c0.08,0.07-1.72,0.9-1.68,0.82c-0.1,0.23,0.11,0.98,0.08,1.3
			c-0.02,0.19-0.22,0.68-0.2,0.84c-0.08-0.53,1.75-1.12,1.68-0.82c0.08-0.34-0.12-0.92-0.08-1.3c0.12-0.97-0.17-2.15-1.4-1.89
			C945.79,435.96,944.77,437.46,944.64,438.55z" class="st0"></path>
	</g>
	<g>
		<path d="M979.66,464.85c-2.72,10.89-12.94,18.97-24.43,16.35c-12.23-2.79-16.9-15.81-15.79-27.14
			c0.33-3.42-3.46-1.34-3.68,0.93c-1.36,13.89,4.58,30.34,20.63,31.42c13.67,0.93,23.85-10.08,26.95-22.5
			C984.17,460.6,980.19,462.71,979.66,464.85L979.66,464.85z" class="st0"></path>
	</g>
	<g>
		<path d="M1474.82,716.75c4.08,16.7-2.95,34.03-17.96,42.68c-14,8.06-31.86,6.97-44.87-2.52
			c-13.24-9.65-19.51-27.35-14.45-43.08c5.25-16.31,21.22-27.03,38.18-26.94C1453.97,687,1469.9,699.25,1474.82,716.75
			c0.72,2.55,4.18-1.23,3.64-3.13c-5.02-17.85-20.9-30.76-39.56-31.5c-18.13-0.71-35.14,10.06-42.73,26.44
			c-7.74,16.69-4.35,37.02,9.26,49.65c13.73,12.74,34.57,14.89,50.89,5.88c17.82-9.84,26.96-30.76,22.14-50.47
			C1477.84,711.08,1474.36,714.85,1474.82,716.75z" class="st0"></path>
	</g>
	<g>
		<path d="M1416.38,719.71c0.15,0.38,0.31,0.78,0.38,1.19c0.17,1-0.48,0.4,0.56-0.72c0.31-0.27,0.62-0.53,0.93-0.8
			c0.67-0.41,0.36,0.17,0.09-0.29c-0.19-0.33-0.51-0.61-0.72-0.95c-0.24-0.39-0.41-0.81-0.53-1.25c-0.06-0.2-0.1-0.39-0.13-0.6
			c0.03-0.78-0.15-0.47-0.53,0.93c-0.31,0.27-0.62,0.53-0.93,0.8c-0.47,0.28-0.46-0.05,0.01,0.4
			C1415.87,718.77,1416.17,719.27,1416.38,719.71c1.13,2.48,4.46-1.34,3.64-3.13c-0.78-1.71-2.3-4.14-4.5-2.93
			c-2.5,1.38-2.76,4.8-1.78,7.18c0.68,1.67,2.31,4.11,4.42,2.98c2.6-1.38,2.81-4.79,1.87-7.23
			C1419.05,714.06,1415.66,717.87,1416.38,719.71z" class="st0"></path>
	</g>
	<g>
		<path d="M1443.35,707.96c0.16,0.41,0.24,0.87,0.4,1.27c0.13,0.33-0.07,0.32,0.09-0.02c0.23-0.4,0.47-0.81,0.7-1.21
			c-0.04,0.04-0.07,0.09-0.11,0.13c0.31-0.27,0.62-0.53,0.93-0.8c0.78-0.5,0.56,0.17,0.35-0.32c-0.15-0.36-0.53-0.69-0.72-1.05
			c-0.22-0.42-0.39-0.88-0.49-1.34c-0.12-0.57,0.02-0.46-0.13-0.15c-0.23,0.4-0.47,0.81-0.7,1.21c0.04-0.04,0.07-0.09,0.11-0.13
			c-0.31,0.27-0.62,0.53-0.93,0.8c-0.48,0.31-0.71-0.07-0.26,0.43C1442.91,707.12,1443.17,707.55,1443.35,707.96
			c1.12,2.48,4.45-1.33,3.64-3.13c-0.71-1.58-2.06-3.99-4.14-2.85c-2.43,1.34-2.56,4.6-1.62,6.87c0.63,1.53,2.07,3.98,4.07,2.89
			c2.5-1.36,2.6-4.58,1.69-6.92C1446.01,702.31,1442.63,706.12,1443.35,707.96z" class="st0"></path>
	</g>
	<g>
		<path d="M1416.11,742.52c6.27,11.63,20.07,18.32,32.58,12.18c13.47-6.61,15.62-23.28,10.97-36.14
			c-0.92-2.53-4.32,1.27-3.64,3.13c4.3,11.87,2.37,27.54-12.25,30.23c-10.37,1.91-19.64-4.55-24.4-13.38
			C1418.33,736.62,1415.14,740.71,1416.11,742.52L1416.11,742.52z" class="st0"></path>
	</g>
	<g>
		<path d="M1030.02,758.41c-2.23,16.69-14.71,29.69-31.25,32.87c-15.98,3.08-32.8-3.82-41.99-17.24
			c-9.43-13.78-9.26-32.73,1.51-45.74c10.66-12.88,29.06-17.38,44.7-11.82C1020.34,722.66,1031.85,739.96,1030.02,758.41
			c-0.34,3.42,3.45,1.34,3.68-0.93c1.83-18.32-7.45-36.05-24.33-43.99c-16.87-7.94-37.37-4.07-50.38,9.19
			c-12.64,12.89-16.62,32.77-8.91,49.26c7.76,16.6,25.61,26.43,43.77,24.65c20.67-2.03,37.12-18.71,39.85-39.11
			C1034.15,754.07,1030.32,756.15,1030.02,758.41z" class="st0"></path>
	</g>
	<g>
		<path d="M974.46,740.43c0,0.09-0.15,0.93-0.1,1.03c-0.25-0.49,1.48-0.97,1.54-1.26c-0.02,0.1-0.38-0.82-0.35-0.71
			c-0.11-0.36-0.16-0.71-0.17-1.09c-0.01-0.27,0.16-0.81,0.1-1.03c0.16,0.62-1.55,1.11-1.54,1.26c0.02,0.14,0.24,0.4,0.29,0.55
			C974.4,739.58,974.43,740,974.46,740.43c0.06,1.11,0.92,1.66,1.93,1.11c1.04-0.56,1.92-2.01,1.86-3.21
			c-0.09-1.66-0.71-5.09-3.16-4.43c-2.59,0.7-3.56,4.28-3.5,6.6c0.04,1.65,0.71,4.98,3.06,4.45c2.71-0.61,3.58-4.28,3.59-6.62
			c0.01-1.13-0.97-1.63-1.93-1.11C975.22,737.81,974.46,739.21,974.46,740.43z" class="st0"></path>
	</g>
	<g>
		<path d="M1003.86,739.33c0,0.1-0.11,0.8-0.07,0.92c-0.01-0.04,1.92-1.34,1.92-1.34c-0.02,0.1-0.28-0.77-0.25-0.64
			c-0.09-0.33-0.12-0.64-0.12-0.98c-0.01-0.29,0.09-0.64,0.07-0.92c0.05,0.6-1.91,1.4-1.92,1.34
			C1003.56,738.23,1003.83,738.75,1003.86,739.33c0.06,1.11,0.93,1.65,1.93,1.11c1.05-0.56,1.92-2.01,1.86-3.21
			c-0.08-1.52-0.54-4.83-2.83-4.22c-2.5,0.67-3.31,4.17-3.26,6.38c0.04,1.5,0.54,4.75,2.75,4.24c2.6-0.6,3.33-4.17,3.33-6.4
			c0-1.13-0.97-1.63-1.93-1.11C1004.63,736.7,1003.86,738.1,1003.86,739.33z" class="st0"></path>
	</g>
	<g>
		<path d="M965.87,761.11c1.71,13.81,12.63,25.99,27.53,23.55c14.06-2.3,20.73-17.19,21.04-30.03
			c0.07-3.07-3.74,0.12-3.79,2.1c-0.28,11.78-7.05,24.13-20.38,23.39c-11.38-0.64-19.28-10.29-20.61-21.11
			C969.27,755.91,965.62,759.09,965.87,761.11L965.87,761.11z" class="st0"></path>
	</g>
	<g>
		<path d="M1030.02,758.41c-2.23,16.69-14.71,29.69-31.25,32.87c-15.98,3.08-32.8-3.82-41.99-17.24
			c-9.43-13.78-9.26-32.73,1.51-45.74c10.66-12.88,29.06-17.38,44.7-11.82C1020.34,722.66,1031.85,739.96,1030.02,758.41
			c-0.34,3.42,3.45,1.34,3.68-0.93c1.83-18.32-7.45-36.05-24.33-43.99c-16.87-7.94-37.37-4.07-50.38,9.19
			c-12.64,12.89-16.62,32.77-8.91,49.26c7.76,16.6,25.61,26.43,43.77,24.65c20.67-2.03,37.12-18.71,39.85-39.11
			C1034.15,754.07,1030.32,756.15,1030.02,758.41z" class="st0"></path>
	</g>
	<g>
		<path d="M974.46,740.43c0,0.09-0.15,0.93-0.1,1.03c-0.25-0.49,1.48-0.97,1.54-1.26c-0.02,0.1-0.38-0.82-0.35-0.71
			c-0.11-0.36-0.16-0.71-0.17-1.09c-0.01-0.27,0.16-0.81,0.1-1.03c0.16,0.62-1.55,1.11-1.54,1.26c0.02,0.14,0.24,0.4,0.29,0.55
			C974.4,739.58,974.43,740,974.46,740.43c0.06,1.11,0.92,1.66,1.93,1.11c1.04-0.56,1.92-2.01,1.86-3.21
			c-0.09-1.66-0.71-5.09-3.16-4.43c-2.59,0.7-3.56,4.28-3.5,6.6c0.04,1.65,0.71,4.98,3.06,4.45c2.71-0.61,3.58-4.28,3.59-6.62
			c0.01-1.13-0.97-1.63-1.93-1.11C975.22,737.81,974.46,739.21,974.46,740.43z" class="st0"></path>
	</g>
	<g>
		<path d="M1003.86,739.33c0,0.1-0.11,0.8-0.07,0.92c-0.01-0.04,1.92-1.34,1.92-1.34c-0.02,0.1-0.28-0.77-0.25-0.64
			c-0.09-0.33-0.12-0.64-0.12-0.98c-0.01-0.29,0.09-0.64,0.07-0.92c0.05,0.6-1.91,1.4-1.92,1.34
			C1003.56,738.23,1003.83,738.75,1003.86,739.33c0.06,1.11,0.93,1.65,1.93,1.11c1.05-0.56,1.92-2.01,1.86-3.21
			c-0.08-1.52-0.54-4.83-2.83-4.22c-2.5,0.67-3.31,4.17-3.26,6.38c0.04,1.5,0.54,4.75,2.75,4.24c2.6-0.6,3.33-4.17,3.33-6.4
			c0-1.13-0.97-1.63-1.93-1.11C1004.63,736.7,1003.86,738.1,1003.86,739.33z" class="st0"></path>
	</g>
	<g>
		<path d="M965.87,761.11c1.71,13.81,12.63,25.99,27.53,23.55c14.06-2.3,20.73-17.19,21.04-30.03
			c0.07-3.07-3.74,0.12-3.79,2.1c-0.28,11.78-7.05,24.13-20.38,23.39c-11.38-0.64-19.28-10.29-20.61-21.11
			C969.27,755.91,965.62,759.09,965.87,761.11L965.87,761.11z" class="st0"></path>
	</g>
	<g>
		<path d="M697.26,661.7c-0.61,18.65,10.7,35.88,28.4,42.2c17.35,6.19,37.01,0.66,48.88-13.34
			c11.65-13.75,14.03-33.8,5.19-49.62c-9.08-16.26-28.25-24.66-46.41-21.12C713.13,623.77,698.6,641.45,697.26,661.7
			c-0.2,3.03,3.66-0.14,3.79-2.1c1.13-17.04,13.48-30.97,30.06-34.77c15.84-3.63,32.89,2.6,42.54,15.69
			c9.89,13.41,10.46,32.4,0.19,45.79c-10.03,13.07-27.68,18.24-43.37,13.74c-17.9-5.13-30.02-21.92-29.42-40.45
			C701.14,656.54,697.32,659.72,697.26,661.7z" class="st0"></path>
	</g>
	<g>
		<path d="M755.11,651.97c-0.26,1.6-0.49,5.24,1.94,5.35c2.62,0.11,4.17-3.69,4.56-5.74c0.3-1.59,0.47-5.12-1.84-5.34
			C757.07,645.97,755.57,649.96,755.11,651.97c-0.22,0.97,0.24,2.13,1.4,1.89c1.22-0.25,2.04-1.73,2.29-2.83
			c0.02-0.1,0.17-0.63,0.19-0.6c0.21,0.35-1.12,0.48-1.14,0.54c-0.01,0.04,0.14,0.43,0.15,0.5c0.05,0.32,0,0.73-0.06,1.04
			c-0.03,0.14-0.2,0.57-0.19,0.6c-0.05-0.18,1.3-1.08,1.14-0.54c0.02-0.07-0.15-0.29-0.14-0.42c0.03-0.39-0.02-0.72,0.05-1.12
			c0.16-0.97-0.2-2.14-1.4-1.89C756.23,649.38,755.29,650.88,755.11,651.97z" class="st0"></path>
	</g>
	<g>
		<path d="M726.3,646.03c-0.24,1.44-0.59,4.97,1.66,5.07c2.5,0.11,3.91-3.66,4.28-5.57c0.28-1.43,0.57-4.86-1.58-5.07
			C728.08,640.21,726.71,644.16,726.3,646.03c-0.21,0.97,0.24,2.13,1.4,1.89c1.22-0.25,2.04-1.73,2.29-2.83
			c0,0.01,0.11-0.47,0.1-0.48c0.08,0.11-1.5,0.57-1.48,0.55c-0.1,0.14,0.01,1.05-0.04,1.31c-0.03,0.12-0.11,0.45-0.1,0.48
			c-0.07-0.28,1.53-0.67,1.48-0.55c0.11-0.26-0.01-0.99,0.04-1.31c0.16-0.97-0.2-2.14-1.4-1.89
			C727.41,643.44,726.48,644.93,726.3,646.03z" class="st0"></path>
	</g>
	<g>
		<path d="M760.35,673.16c-3.19,10.81-13.09,18.55-24.67,16c-12.61-2.78-16.88-16.6-15.27-28.01
			c0.48-3.4-3.36-1.31-3.68,0.93c-1.91,13.58,3.16,29.89,18.62,32.15c13.5,1.97,24.71-8.5,28.33-20.76
			C764.66,670.14,761.12,670.53,760.35,673.16L760.35,673.16z" class="st0"></path>
	</g>
	<g>
		<path d="M660.77,631.12c-33.56-14.05-56.92-45.05-66.89-79.42c-11.32-39.01-7.17-81.58,4.16-120.1
			c20.14-68.49,65.75-127.86,122.55-170.31c64.18-47.96,142.6-73.96,221.41-84.48c83.54-11.15,171.99-7.95,251.96,20.38
			c29.55,10.47,58.76,22.66,85.79,38.63c25.15,14.86,51.21,34.09,64.06,61.18c2.89,6.08,4.91,12.51,6.08,19.14
			c0.45,2.52,3.98-1.22,3.64-3.13c-5.14-29.09-27.2-51.41-50.24-68.1c-26.76-19.38-57.26-33.44-87.96-45.32
			c-38.6-14.94-78.43-25.05-119.59-29.69c-42.62-4.81-85.84-4.57-128.52-0.56c-81.72,7.69-163.49,31.14-232.08,77.26
			c-59.75,40.18-108.97,97.98-134.16,165.84c-25.22,67.97-29.86,161.08,33.97,209.86c7.13,5.45,14.92,9.92,23.2,13.38
			C660.17,636.52,662.68,631.92,660.77,631.12L660.77,631.12z" class="st0"></path>
	</g>
	<g>
		<path d="M1290.15,391.38c-12.59,2.01-26.76-1.18-38.2-6.3c-5.83-2.61-11.54-6.03-15.53-11.04
			c-5.39-6.76-8.94-14.93-12.1-22.87c-5.81-14.61-10.86-29.17-19.85-42.28c-8.21-11.98-18.57-22.54-30.36-31.17
			c-50.83-37.22-124.66-31.05-168.58,13.92c-23.8,24.37-37.28,57.71-36.93,91.45c0.03,3.35,4.21-0.11,4.19-2.28
			c-0.32-31,11.59-61.61,33.11-84.36c21.96-23.22,53.43-36.72,85.57-38.09c30.35-1.29,60.02,8.59,83.64,27.28
			c11.41,9.04,21.25,20.02,28.86,32.33c8.44,13.65,12.69,28.93,19.18,43.45c6.12,13.68,13.64,23.62,27.88,29.47
			c11.71,4.81,25.46,7.66,38.13,5.63C1291.31,396.17,1293.11,390.9,1290.15,391.38L1290.15,391.38z" class="st0"></path>
	</g>
	<g>
		<path d="M882.66,508.77c-4.21,6.51-11.35,12.24-20.02,15.01c-10.02,3.2-22.15,1.33-32.72,1.55
			c-16.29,0.33-31.76,4.23-44.87,11.97c-23.62,13.96-31.7,38.56-29.92,61.01c0.34,4.28,6.84-0.12,6.62-2.9
			c-0.93-11.72,1.2-24.02,6.79-34.94c6.68-13.03,21.91-22.12,38.69-26.16c17.05-4.11,35.38,0.61,52.1-3.44
			c12.07-2.93,22.47-11.22,28.11-19.93C889.95,507.05,885.23,504.79,882.66,508.77L882.66,508.77z" class="st0"></path>
	</g>
	<g>
		<path d="M816.21,704.37c12.13,1.37,21.38,10,25.58,21.22c1.86,4.97,1.85,9.63,2.22,14.84
			c0.49,6.96,2.04,13.83,5.07,20.14c10.58,22.05,40.73,17.4,60.54,13.78c1.93-0.35,3.55-5.21,0.89-4.72
			c-11.84,2.16-24.21,3.8-36.21,2.03c-5.18-0.76-10.46-2.24-14.74-5.39c-5.81-4.28-8.69-11.87-10.35-18.65
			c-1.49-6.1-0.98-12.25-1.96-18.37c-0.67-4.21-2.18-8.26-4.18-12.02c-5.16-9.68-14.05-16.43-25.05-17.67
			C815.99,699.33,813.88,704.1,816.21,704.37L816.21,704.37z" class="st0"></path>
	</g>
	<g>
		<path d="M939.15,690.07c-1.36-11.06,8.08-21.32,14.66-29.15c8.1-9.64,17.08-18.75,23.79-29.46
			c6.43-10.28,9.24-22.74,6.62-34.7c-2.82-12.87-11.77-23.15-22.63-30.14c-1.78-1.15-4.46,3.36-2.62,4.55
			c11.59,7.46,20.97,18.94,22.29,33.08c1.29,13.74-5.02,24.82-13.29,35.1c-7.58,9.42-16.15,18.06-23.23,27.88
			c-5.14,7.12-10.5,15.77-9.37,24.94C935.74,695.27,939.4,692.09,939.15,690.07L939.15,690.07z" class="st0"></path>
	</g>
	<g>
		<path d="M1014.03,680.83c2.37-27.61,14.23-55.24,32.52-76.03c18.42-20.94,45.35-32.18,71.94-38.7
			c14.75-3.62,29.92-5.8,45.12-5.75c2.04,0.01,4.05-4.8,1.81-4.8c-28.98-0.08-58.87,6.94-84.88,19.67
			c-26.3,12.87-45.33,34.19-57.56,60.64c-6.86,14.85-11.33,30.76-12.73,47.07C1009.99,685.94,1013.86,682.77,1014.03,680.83
			L1014.03,680.83z" class="st0"></path>
	</g>
	<g>
		<path d="M1336.02,577.79c8.15-1.02,16.19-2.04,22.22-8.15c5.58-5.65,8.79-13.65,8.49-21.6
			c-0.39-10.49-6.43-19.39-9.17-29.27c-1.49-5.38-1.77-10.09,1.04-14.99c2.07-3.61,4.97-7.33,8.42-9.73
			c1.59-1.11,2.41-6.06-0.07-4.33c-5.06,3.52-9.26,8.72-12.01,14.21c-3.7,7.37-2.33,14.81,0.43,22.33
			c3.67,9.99,10.1,20.49,6.57,31.45c-3.82,11.9-14.1,13.98-25.02,15.35C1334.96,573.32,1333.31,578.13,1336.02,577.79
			L1336.02,577.79z" class="st0"></path>
	</g>
	<g>
		<path d="M1185.01,644.46c-10.33,17.41-13.66,39.13-13.26,59.05c0.45,22.11,6.17,42.34,18.27,58.6
			c26.82,36.06,71.72,45.53,112.7,45.21c22.81-0.18,46.42-3.26,68.61-12.22c2.22-0.9,4.84-7.12,1.39-5.72
			c-36.78,14.85-79.25,15.72-115.58,6.83c-37.05-9.07-73.03-35.27-79.17-81.36c-2.94-22.04-1.15-49.11,10.66-69.02
			C1191,641.81,1186.86,641.33,1185.01,644.46L1185.01,644.46z" class="st0"></path>
	</g>
	<g>
		<path d="M1451.98,363c32.81-14.08,73.03-18.17,107.76-9.14c34.91,9.08,64.3,33.46,86.58,61.09
			c11.85,14.69,21.63,31.44,26.08,49.91c5.25,21.75,2.27,44.56-4.24,65.71c-10.55,34.25-30.13,64.85-54.21,91.16
			c-27.58,30.13-60.83,54.72-95.91,75.41c-1.71,1.01-2.58,5.89,0.07,4.33c63.06-37.2,123.5-89.1,149.62-159.5
			c7.3-19.68,12.18-40.86,10.99-61.95c-1.12-19.73-8.22-38.34-18.87-54.86c-10.17-15.78-23.22-29.9-37.28-42.29
			c-14.12-12.45-30.09-22.93-47.76-29.58c-38.57-14.51-85.42-10.67-122.89,5.4C1450.05,359.47,1449.11,364.24,1451.98,363
			L1451.98,363z" class="st0"></path>
	</g>
	<g>
		<path d="M1470.15,498.81c73.81,47.75,141.44,111.3,171.35,196.01c15,42.48,17.77,89.69-7.75,128.75
			c-21.54,32.97-56.92,54.55-91.84,70.95c-41.88,19.68-86.32,34.75-130.57,48.07c-46.23,13.92-93.29,25.08-140.86,33.37
			c-95.47,16.63-193.01,21.6-289.62,13.8c-23.58-1.9-47.23-4.34-70.6-8.04c-18.11-2.86-38.98-7.68-50.96-22.82
			c-13.2-16.67-8.66-39.38,3.88-55.01c6.6-8.23,15.5-14.02,24.19-19.8c9.12-6.07,18.46-11.82,27.89-17.38
			c8.83-5.21,17.75-10.24,26.77-15.12c1.76-0.95,2.65-5.8-0.07-4.33c-20.04,10.84-39.83,22.34-58.65,35.2
			c-15.8,10.79-29.21,23.39-34.23,42.55c-4.71,17.98,1.28,36,16.54,46.85c16.35,11.63,37.67,14.1,57,16.68
			c100.31,13.39,202.37,12.62,302.61-0.98c99.62-13.51,197.86-39.5,290.97-77.45c36.86-15.02,74.05-33.53,102.13-62.4
			c13.53-13.92,24.57-30.28,31.2-48.59c7.7-21.25,9.02-44.12,5.9-66.4c-6.43-45.96-29.17-90.21-57.04-126.8
			c-27.47-36.05-61.65-66.67-98.34-93.07c-8.93-6.42-18.03-12.6-27.26-18.57C1471,493.12,1468.32,497.63,1470.15,498.81
			L1470.15,498.81z" class="st0"></path>
	</g>
	<g>
		<path d="M1538.42,777.69c12.28,8.84,21.11,22.71,22.88,41.05c1.72,17.82-2.42,35.95-7.7,52.22
			c-5.78,17.82-13.53,34.57-21.94,50.52c-9.7,18.38-20.51,35.43-33.43,50.22c-28.74,32.88-64.02,54.98-99.56,72.81
			c-38.6,19.37-78.76,33.39-119.57,42.49c-82.01,18.28-166.35,16.69-248.37-0.6c-42.18-8.89-83.85-21.98-124.46-39.16
			c-38.28-16.19-76.56-35.23-112-60.09c-32.28-22.64-62.87-52.75-80.42-95.34c-17.26-41.89-21.15-92.84-10.86-138.34
			c2.5-11.05,5.86-21.74,9.99-31.94c1.36-3.35-1.14-5.29-2.52-1.88c-16.91,41.76-20.92,91.07-11.75,136.62
			c9.5,47.17,33.41,84.93,63.8,112.87c32.91,30.25,71.32,50.7,108.97,68.88c41.35,19.96,83.94,35.68,127.22,46.95
			c84.96,22.13,172.89,27.46,258.83,11.85c42.94-7.8,85.34-20.91,126.16-39.85c36.6-16.98,73.02-37.88,103.99-68.66
			c26.59-26.43,47.53-61.64,62.85-100.04c11.48-28.79,23.31-69.79,6.14-98.99c-4.21-7.16-9.77-12.66-15.82-17.01
			C1539.11,771.02,1536.69,776.44,1538.42,777.69L1538.42,777.69z" class="st0"></path>
	</g>
	<g>
		<path d="M1234.82,502.71c-4.65-30.06-16.56-62.42-45.99-76.16c-12.96-6.05-27.62-7.29-41.04-1.96
			c-14.34,5.7-25.56,16.7-38.02,25.44c-14.65,10.28-32.82,22.08-51.42,15.94c-2.1-0.69-4.53,3.92-2.62,4.55
			c29.33,9.67,55.37-18.46,77.22-33.43c12.91-8.85,27.24-13.52,42.82-9.7c15.29,3.74,28.36,13.93,37.19,26.77
			c10.52,15.29,15.41,33.56,18.21,51.68C1231.57,508.35,1235.12,504.63,1234.82,502.71L1234.82,502.71z" class="st0"></path>
	</g>
	<g>
		<path d="M712.12,717.78c-9.56,2.64-19.11,5.28-28.67,7.91c-1.77,0.49-3.25,6.3-0.82,5.63
			c9.56-2.64,19.11-5.28,28.67-7.91C713.07,722.92,714.55,717.11,712.12,717.78L712.12,717.78z" class="st0"></path>
	</g>
	<g>
		<path d="M710.03,722.46c3.44,11.21,6.89,22.42,10.33,33.63c0.92,3,4.04-1.54,3.37-3.73
			c-3.44-11.21-6.89-22.42-10.33-33.63C712.47,715.72,709.35,720.27,710.03,722.46L710.03,722.46z" class="st0"></path>
	</g>
	<g>
		<path d="M659.9,631.04c-8.59,2.54-17.17,5.07-25.76,7.61c-1.87,0.55-3.41,5.47-0.89,4.72
			c8.59-2.54,17.17-5.07,25.76-7.61C660.88,635.21,662.42,630.29,659.9,631.04L659.9,631.04z" class="st0"></path>
	</g>
	<g>
		<path d="M661.28,631.83c-1.56-8.01-3.11-16.03-4.67-24.04c-0.49-2.53-4.02,1.22-3.64,3.13
			c1.56,8.01,3.11,16.03,4.67,24.04C658.12,637.49,661.65,633.75,661.28,631.83L661.28,631.83z" class="st0"></path>
	</g>
	<g>
		<path d="M757.44,599.58c4.27-4.27,8.53-8.53,12.8-12.8c0.78-0.78,1.77-2.21,1.31-3.39c-0.42-1.06-1.58-1.02-2.34-0.26
			c-4.27,4.27-8.53,8.53-12.8,12.8c-0.78,0.78-1.77,2.21-1.31,3.39C755.52,600.38,756.68,600.34,757.44,599.58L757.44,599.58z" class="st0"></path>
	</g>
	<g>
		<path d="M758.55,595.77c-3.83-4.9-7.66-9.79-11.49-14.69c-1.45-1.85-4.51,2.36-3.26,3.97
			c3.83,4.9,7.66,9.79,11.49,14.69C756.74,601.59,759.81,597.38,758.55,595.77L758.55,595.77z" class="st0"></path>
	</g>
	<g>
		<path d="M881.74,511.31c1.11,9.38,2.21,18.75,3.32,28.13c0.5,4.28,6.95-0.11,6.62-2.9
			c-1.11-9.38-2.21-18.75-3.32-28.13C887.85,504.12,881.41,508.52,881.74,511.31L881.74,511.31z" class="st0"></path>
	</g>
	<g>
		<path d="M885.82,506.6c-12.02,1.31-24.04,2.62-36.05,3.93c-3.4,0.37-6.27,7.03-1.56,6.52
			c12.02-1.31,24.04-2.62,36.05-3.93C887.66,512.74,890.54,506.08,885.82,506.6L885.82,506.6z" class="st0"></path>
	</g>
	<g>
		<path d="M817.15,704.13c5.63-3.44,11.26-6.87,16.88-10.31c1.69-1.03,2.55-5.93-0.07-4.33
			c-5.63,3.44-11.26,6.87-16.88,10.31C815.39,700.83,814.53,705.73,817.15,704.13L817.15,704.13z" class="st0"></path>
	</g>
	<g>
		<path d="M815.29,703.53c0.89,6.04,1.78,12.09,2.67,18.13c0.37,2.5,3.92-1.22,3.64-3.13
			c-0.89-6.04-1.78-12.09-2.67-18.13C818.56,697.9,815.01,701.62,815.29,703.53L815.29,703.53z" class="st0"></path>
	</g>
	<g>
		<path d="M911.69,770.01c-4.98-5.5-9.95-11-14.93-16.5c-1.6-1.77-4.61,2.47-3.26,3.97c4.98,5.5,9.95,11,14.93,16.5
			C910.04,775.74,913.04,771.5,911.69,770.01L911.69,770.01z" class="st0"></path>
	</g>
	<g>
		<path d="M908.7,771.2c-3.79,6.58-7.58,13.15-11.37,19.73c-1.59,2.77,1.12,4.36,2.73,1.58
			c3.79-6.58,7.58-13.15,11.37-19.73C913.02,770.01,910.3,768.42,908.7,771.2L908.7,771.2z" class="st0"></path>
	</g>
	<g>
		<path d="M940.15,849.9c-2.53,9-5.06,18-7.58,27c-0.92,3.28,3.09,1.17,3.68-0.93c2.53-9,5.06-18,7.58-27
			C944.76,845.68,940.75,847.79,940.15,849.9L940.15,849.9z" class="st0"></path>
	</g>
	<g>
		<path d="M942.9,847.03c-9.16-0.48-18.33-0.95-27.49-1.43c-2.04-0.11-4.1,4.68-1.81,4.8
			c9.16,0.48,18.33,0.95,27.49,1.43C943.13,851.94,945.19,847.15,942.9,847.03L942.9,847.03z" class="st0"></path>
	</g>
	<g>
		<path d="M956.03,566.71c-1.54,8.71-3.09,17.41-4.63,26.12c-0.6,3.38,3.29,1.28,3.68-0.93
			c1.54-8.71,3.09-17.41,4.63-26.12C960.31,562.39,956.42,564.49,956.03,566.71L956.03,566.71z" class="st0"></path>
	</g>
	<g>
		<path d="M956.96,568.64c10.46,0.1,20.93,0.19,31.39,0.29c2.04,0.02,4.06-4.78,1.81-4.8
			c-10.46-0.1-20.93-0.19-31.39-0.29C956.72,563.82,954.71,568.62,956.96,568.64L956.96,568.64z" class="st0"></path>
	</g>
	<g>
		<path d="M1013.1,683.25c6.16-6.4,12.32-12.8,18.48-19.19c1.89-1.97,0.48-5.23-1.93-2.73
			c-6.16,6.4-12.32,12.8-18.48,19.19C1009.28,682.48,1010.69,685.75,1013.1,683.25L1013.1,683.25z" class="st0"></path>
	</g>
	<g>
		<path d="M1013.77,679.9c-3.71-7.07-7.43-14.15-11.14-21.22c-1.02-1.94-4.21,2.14-3.26,3.97
			c3.71,7.07,7.43,14.15,11.14,21.22C1011.53,685.8,1014.72,681.72,1013.77,679.9L1013.77,679.9z" class="st0"></path>
	</g>
	<g>
		<path d="M1163.54,556.58c-5.77,6.32-11.53,12.64-17.3,18.96c-1.83,2.01-0.42,5.3,1.93,2.73
			c5.77-6.32,11.53-12.64,17.3-18.96C1167.31,557.3,1165.89,554.01,1163.54,556.58L1163.54,556.58z" class="st0"></path>
	</g>
	<g>
		<path d="M1166.14,555.96c-5.77-5.69-11.53-11.37-17.3-17.06c-1.72-1.69-4.67,2.57-3.26,3.97
			c5.77,5.69,11.53,11.37,17.3,17.06C1164.6,561.62,1167.55,557.36,1166.14,555.96L1166.14,555.96z" class="st0"></path>
	</g>
	<g>
		<path d="M1186.86,642.58c-7.48,4.01-14.97,8.02-22.45,12.02c-2.47,1.32-3.83,7.12-0.09,5.11
			c7.48-4.01,14.97-8.02,22.45-12.02C1189.23,646.37,1190.6,640.58,1186.86,642.58L1186.86,642.58z" class="st0"></path>
	</g>
	<g>
		<path d="M1184.32,647.28c1.97,8.55,3.93,17.1,5.9,25.65c0.66,2.87,5.58-1.66,4.98-4.29
			c-1.97-8.55-3.93-17.1-5.9-25.65C1188.64,640.12,1183.72,644.66,1184.32,647.28L1184.32,647.28z" class="st0"></path>
	</g>
	<g>
		<path d="M1370.21,791.55c-7.23,11.37-14.46,22.74-21.69,34.11c-2.5,3.94,1.68,4.4,3.61,1.37
			c7.23-11.37,14.46-22.74,21.69-34.11C1376.32,788.98,1372.14,788.52,1370.21,791.55L1370.21,791.55z" class="st0"></path>
	</g>
	<g>
		<path d="M1373.84,789.33c-9.45-4.61-18.91-9.22-28.36-13.83c-2.1-1.02-6.12,4.6-3.65,5.81
			c9.45,4.61,18.91,9.22,28.36,13.83C1372.29,796.16,1376.31,790.54,1373.84,789.33L1373.84,789.33z" class="st0"></path>
	</g>
	<g>
		<path d="M1057.56,469.37c5.86-4.98,11.73-9.95,17.6-14.93c1.71-1.45,1.59-5.88-1.03-3.65
			c-5.87,4.98-11.73,9.95-17.6,14.93C1054.82,467.17,1054.94,471.59,1057.56,469.37L1057.56,469.37z" class="st0"></path>
	</g>
	<g>
		<path d="M1055.22,469.11c2.25,7.52,4.5,15.05,6.75,22.57c0.76,2.55,4.21-1.24,3.64-3.13
			c-2.25-7.52-4.5-15.05-6.75-22.57C1058.1,463.43,1054.66,467.22,1055.22,469.11L1055.22,469.11z" class="st0"></path>
	</g>
	<g>
		<path d="M1234.36,505.07c4.09-7.86,8.17-15.72,12.26-23.59c1.46-2.81-1.24-4.44-2.73-1.57
			c-4.09,7.86-8.17,15.72-12.26,23.59C1230.17,506.3,1232.87,507.93,1234.36,505.07L1234.36,505.07z" class="st0"></path>
	</g>
	<g>
		<path d="M1234.31,502c-7.05-4.84-14.1-9.68-21.15-14.52c-1.73-1.19-4.43,3.3-2.62,4.55
			c7.05,4.84,14.1,9.68,21.15,14.52C1233.42,507.74,1236.12,503.25,1234.31,502L1234.31,502z" class="st0"></path>
	</g>
	<g>
		<path d="M1537.88,776.24c-0.11,12.57-0.22,25.15-0.33,37.72c-0.03,3.66,3.48-0.13,3.5-2.51
			c0.11-12.57,0.22-25.15,0.33-37.72C1541.42,770.07,1537.91,773.86,1537.88,776.24L1537.88,776.24z" class="st0"></path>
	</g>
	<g>
		<path d="M1538.8,777.85c9.09,0.85,18.19,1.7,27.28,2.54c1.88,0.18,3.8-5.53,1.67-5.73
			c-9.09-0.85-18.19-1.7-27.28-2.54C1538.59,771.94,1536.67,777.65,1538.8,777.85L1538.8,777.85z" class="st0"></path>
	</g>
	<g>
		<path d="M1519.91,698.83c1.45-10.22,2.91-20.44,4.36-30.66c0.48-3.4-3.36-1.31-3.68,0.93
			c-1.45,10.22-2.91,20.44-4.36,30.66C1515.75,703.17,1519.59,701.08,1519.91,698.83L1519.91,698.83z" class="st0"></path>
	</g>
	<g>
		<path d="M1517.17,701.7c9.83,1.07,19.67,2.13,29.5,3.2c2.02,0.22,4.13-4.55,1.81-4.8c-9.83-1.07-19.67-2.13-29.5-3.2
			C1516.95,696.68,1514.84,701.45,1517.17,701.7L1517.17,701.7z" class="st0"></path>
	</g>
	<g>
		<path d="M1469.57,497.59c-0.58,9.35-1.16,18.7-1.74,28.05c-0.19,3.04,3.66-0.14,3.79-2.1
			c0.58-9.35,1.16-18.7,1.74-28.05C1473.55,492.46,1469.7,495.63,1469.57,497.59L1469.57,497.59z" class="st0"></path>
	</g>
	<g>
		<path d="M1470.56,498.94c11.09,1.29,22.18,2.59,33.27,3.88c2.02,0.24,4.13-4.53,1.81-4.8
			c-11.09-1.29-22.18-2.59-33.27-3.88C1470.35,493.9,1468.24,498.67,1470.56,498.94L1470.56,498.94z" class="st0"></path>
	</g>
	<g>
		<path d="M1365.08,492.94c-0.11,5.69-0.22,11.37-0.33,17.06c-0.06,3.07,3.75-0.11,3.79-2.1
			c0.11-5.69,0.22-11.37,0.33-17.06C1368.92,487.77,1365.12,490.95,1365.08,492.94L1365.08,492.94z" class="st0"></path>
	</g>
	<g>
		<path d="M1337.82,576.22c3.19-4.68,6.38-9.37,9.57-14.05c0.51-0.75,0.94-2.49-0.05-3.06
			c-1.07-0.62-2.18,0.76-2.68,1.49c-3.19,4.68-6.38,9.37-9.57,14.05c-0.51,0.75-0.94,2.49,0.05,3.06
			C1336.22,578.33,1337.33,576.95,1337.82,576.22L1337.82,576.22z" class="st0"></path>
	</g>
	<g>
		<path d="M1335.15,577.71c4.85,3.31,9.7,6.63,14.55,9.94c1.73,1.18,4.44-3.31,2.62-4.55
			c-4.85-3.31-9.7-6.63-14.55-9.94C1336.04,571.98,1333.34,576.47,1335.15,577.71L1335.15,577.71z" class="st0"></path>
	</g>
	<g>
		<path d="M1367.42,489.53c-6.15,1.3-12.3,2.61-18.45,3.91c-1.92,0.41-3.52,5.28-0.89,4.72
			c6.15-1.3,12.3-2.61,18.45-3.91C1368.44,493.84,1370.04,488.97,1367.42,489.53L1367.42,489.53z" class="st0"></path>
	</g>
	<g>
		<path d="M1288.58,392.46c-4.99,5.64-9.97,11.29-14.96,16.93c-1.96,2.22-0.4,5.84,2.14,2.97
			c4.99-5.64,9.97-11.29,14.96-16.93C1292.69,393.21,1291.12,389.59,1288.58,392.46L1288.58,392.46z" class="st0"></path>
	</g>
	<g>
		<path d="M1291.46,391.79c-4.99-5.09-9.97-10.18-14.96-15.28c-1.84-1.88-5.14,2.74-3.61,4.31
			c4.99,5.09,9.97,10.18,14.96,15.28C1289.7,397.98,1292.99,393.36,1291.46,391.79L1291.46,391.79z" class="st0"></path>
	</g>
	<g>
		<path d="M1353.38,314.73c3.4-8.85,6.79-17.69,10.19-26.54c1.25-3.26-2.36-2.83-3.33-0.31
			c-3.4,8.85-6.79,17.69-10.19,26.54C1348.8,317.68,1352.42,317.25,1353.38,314.73L1353.38,314.73z" class="st0"></path>
	</g>
	<g>
		<path d="M1353.03,312.3c-8.53-5.45-17.06-10.9-25.59-16.35c-1.79-1.14-4.46,3.37-2.62,4.55
			c8.53,5.45,17.06,10.9,25.59,16.35C1352.19,317.99,1354.87,313.48,1353.03,312.3L1353.03,312.3z" class="st0"></path>
	</g>
	<g>
		<path d="M1453.31,361.63c3.96-7.03,7.92-14.06,11.89-21.09c1.57-2.78-1.15-4.38-2.73-1.58
			c-3.96,7.03-7.92,14.06-11.89,21.09C1449.02,362.83,1451.73,364.43,1453.31,361.63L1453.31,361.63z" class="st0"></path>
	</g>
	<g>
		<path d="M1450.63,363.11c6.28,3.34,12.57,6.68,18.85,10.02c1.91,1.02,4.51-3.54,2.62-4.55
			c-6.28-3.34-12.57-6.68-18.85-10.02C1451.35,357.55,1448.75,362.11,1450.63,363.11L1450.63,363.11z" class="st0"></path>
	</g>
	<g>
		<path d="M937.77,692.95c6.34-5.51,12.68-11.02,19.02-16.53c1.69-1.47,1.56-5.91-1.03-3.65
			c-6.34,5.51-12.68,11.02-19.02,16.53C935.05,690.76,935.18,695.2,937.77,692.95L937.77,692.95z" class="st0"></path>
	</g>
	<g>
		<path d="M938.88,689.14c-3.5-6.62-6.99-13.23-10.49-19.85c-1.02-1.94-4.22,2.15-3.26,3.97
			c3.5,6.62,6.99,13.23,10.49,19.85C936.65,695.04,939.84,690.96,938.88,689.14L938.88,689.14z" class="st0"></path>
	</g>
	<g>
		<path d="M969.9,387.82c6.34-5.51,12.68-11.02,19.02-16.53c1.69-1.47,1.56-5.91-1.03-3.65
			c-6.34,5.51-12.68,11.02-19.02,16.53C967.18,385.63,967.3,390.07,969.9,387.82L969.9,387.82z" class="st0"></path>
	</g>
	<g>
		<path d="M971.01,384.01c-3.5-6.62-6.99-13.23-10.49-19.85c-1.02-1.94-4.22,2.15-3.26,3.97
			c3.5,6.62,6.99,13.23,10.49,19.85C968.78,389.91,971.97,385.83,971.01,384.01L971.01,384.01z" class="st0"></path>
	</g>
</g>
</svg>
