<svg viewBox="0 0 1920 1080" xmlns="http://www.w3.org/2000/svg" id="Layer_1">
  <defs>
    <style>
      .cls-1 {
        fill: #15535e;
        stroke-width: 0px;
      }
    </style>
  </defs>
  <path d="m1140.05,528.61c6.65,6.95,2.79,17.83,7.87,25.62,1.4,2.14,3.72,3.6,4.98,5.83,1.57,2.81,1.1,6.09,1.22,9.15.16,4.07.97,7.82,4.43,10.29,1.69,1.21,4.41-3.26,2.62-4.55-4.62-3.31-2.76-9.52-3.5-14.32-.82-5.34-5.44-7.55-7.46-12.22-3.36-7.75-.6-17.19-6.9-23.77-1.66-1.74-4.64,2.52-3.26,3.97h0Z" class="cls-1"></path>
  <path d="m1182.07,503.9c.16,4,2.28,6.58,5.06,9.29,4.1,4.01,6.08,7.67,7.49,13.28,2.59,10.3,7.38,19.66,14.26,27.76,1.54,1.81,4.57-2.42,3.26-3.97-6.69-7.88-11.35-16.89-13.87-26.92-1.04-4.16-2.06-8.03-5.01-11.29-2.78-3.07-7.22-5.71-7.4-10.26-.12-3.1-3.86.09-3.79,2.1h0Z" class="cls-1"></path>
  <path d="m1222.64,473.66c9.88,9.8,19.76,19.6,29.64,29.39,1.71,1.7,4.67-2.56,3.26-3.97-9.88-9.8-19.76-19.6-29.64-29.39-1.71-1.7-4.67,2.56-3.26,3.97h0Z" class="cls-1"></path>
  <path d="m1262.28,426.73c4.03,4.88,10.73,5.1,15.79,8.51,6.57,4.43,12.35,10.4,18.31,15.61,1.51,1.32,4.3-3.08,2.62-4.55-5.62-4.91-11.06-10.25-17.04-14.7-4.95-3.69-12.46-4.03-16.43-8.83-1.5-1.82-4.55,2.4-3.26,3.97h0Z" class="cls-1"></path>
  <path d="m1286.08,394.05c16.57,8.49,32.8,16.81,47.35,28.58,1.58,1.28,4.35-3.15,2.62-4.55-14.55-11.76-30.78-20.09-47.35-28.58-1.93-.99-4.52,3.58-2.62,4.55h0Z" class="cls-1"></path>
  <path d="m1305.8,356.43c9.54-1.02,19.2,2.34,28.38,4.56s18.46,4.47,26.94,8.91c1.92,1.01,4.52-3.56,2.62-4.55-8.73-4.58-18.24-6.87-27.76-9.17s-19.34-5.55-29.3-4.48c-1.95.21-3.61,5.01-.89,4.72h0Z" class="cls-1"></path>
  <path d="m1303.3,502.47c23.84,20.43,22.78,55.91,21.36,84.49-.19,3.92,4.74-.17,4.87-2.7,1.49-30.02,2.07-66.28-22.85-87.64-1.96-1.68-5.54,3.99-3.38,5.85h0Z" class="cls-1"></path>
  <path d="m1305.91,498.02c2.72-10.51,8.21-20.14,15.84-27.85,6.95-7.02,16.39-13.8,26.46-14.96,4.54-.52,9.66.24,12.67,4.04,4.53,5.73,1.56,13.49-2.67,18.4-7.5,8.71-19.25,12.54-30.06,15.17s-22.34,4.51-32.83,9.15c-9.08,4.02-17.36,9.9-24.29,17-6.04,6.18-14.18,15.15-14.46,24.31-.3,9.65,9.63,12.6,17.33,9.56,20.16-7.96,32.27-32.06,32.42-52.73.03-3.95-4.85.14-4.87,2.7-.08,10.93-3.55,21.58-10.18,30.31-4.81,6.34-20.57,22.11-28.55,11.89-4.33-5.54,3.11-13.77,6.57-17.9s7.53-7.97,11.9-11.27c9.46-7.14,20.32-11.11,31.76-13.79,18.95-4.44,42.88-8.29,52.38-27.91,3.42-7.05,4.33-16.77-2.47-22.18s-16.11-3.14-23.01-.08c-19.39,8.58-33.43,27.1-38.68,47.34-1.1,4.26,4.02,1.54,4.73-1.2h0Z" class="cls-1"></path>
  <path d="m1383.49,614.45c-25.34,2.37-50.83,3.8-76.28,2.76-12.44-.51-24.86-1.61-37.17-3.53-3.03-.47-6.42-.11-7.6-3.21-1.06-2.79-1.28-6.46-1.88-9.4-1.34-6.59-2.72-13.17-4.03-19.76l-3.5,5.1c44.97,2.89,90,3.08,135.02,1.17l-1.2-2.49c-2.1,11-4.2,21.99-6.29,32.99-.83,4.34,4.19,1.63,4.73-1.2,2.1-11,4.2-21.99,6.29-32.99.15-.79,0-2.54-1.2-2.49-45.02,1.91-90.05,1.72-135.02-1.17-2.32-.15-3.89,3.16-3.5,5.1,2.13,10.68,4.41,21.33,6.47,32.03.11.59.63.97,1.18,1.07,40.54,7.47,82.01,5.9,122.85,2.08,2.5-.23,4.65-6.4,1.14-6.07Z" class="cls-1"></path>
  <path d="m1041.09,231.69c4.12-3.71,8.75-6.74,13.98-8.64,3.96-1.44,14.41-4.52,13.62,3.41-.47,4.78-6.16,10.8-9.02,14.41-3.19,4.03-6.65,7.85-10.39,11.37-3.39,3.19-6.98,6.18-10.74,8.92-4.19,3.05-10.01,7.91-15.38,7.91-5.01,0-8.05-5.07-7.49-9.77.64-5.42,6.03-9.44,9.9-12.72,2.69-2.28,2.5-9.24-1.62-5.74-8.45,7.17-21.43,22.11-10.34,33.02,5.47,5.38,12.78,1.97,18.3-1.39,6.8-4.14,13.21-9.01,19-14.47s11.12-11.55,15.73-18.1c3.79-5.39,9.31-12.44,7.86-19.5-3.35-16.28-28.91.05-35.02,5.56-2.6,2.34-2.39,9.36,1.62,5.74h0Z" class="cls-1"></path>
  <path d="m1031.54,245.48c-3.61-3.64-7.3-7.22-10.83-10.94-.87-.91-2.08-1.92-2.65-3.07-.92-1.85-.65-7.54.97-9.02,2.47-2.26,7.65-.73,10.05.48,4.7,2.36,8.03,6.82,11.46,10.66,2.44,2.73,3.61,4.56,1.44,8.26-1.9,3.24-6.79,5.99-10.11,3.64-1.22-.86-3.16,2.34-1.88,3.25,5.99,4.23,14.49-3.77,16.05-9.51.95-3.49-.96-5.99-3.18-8.47-3.38-3.79-6.67-8.13-11.15-10.69-6.25-3.56-14.99-2.43-17.63,5.05-1.26,3.57-.08,6.92,2.15,9.83,3.73,4.86,8.67,9.03,12.98,13.38,1.21,1.22,3.33-1.82,2.33-2.83h0Z" class="cls-1"></path>
  <path d="m1025.8,221.69c3.43,2.21,5.16,7.3,1.42,10.16-3.16,2.41-7.49,1.07-9.75-1.87-1.02-1.33-3.22,1.68-2.33,2.83,3.73,4.85,10.54,4.75,14.41.11s3.19-11.22-1.87-14.48c-1.27-.82-3.19,2.4-1.88,3.25h0Z" class="cls-1"></path>
  <path d="m1068.69,222.2c23.18,25.35,45.65,51.33,67.4,77.92,1.92,2.35,5.84-3.07,4.19-5.1-21.75-26.59-44.23-52.57-67.4-77.92-2.07-2.27-5.93,3.19-4.19,5.1h0Z" class="cls-1"></path>
  <path d="m1013.35,271.84c19.65,27.43,40.74,53.78,63.19,78.97,2.04,2.29,5.91-3.16,4.19-5.1-22.45-25.19-43.54-51.55-63.19-78.97-1.74-2.42-5.72,2.96-4.19,5.1h0Z" class="cls-1"></path>
  <path d="m1135.36,297.5c-7.74,24.65-28.54,43.26-53.7,48.83-3,.67-5.51,8.33-1.4,7.42,28.25-6.26,51.68-28.22,60.33-55.76,1.64-5.21-3.94-4.58-5.23-.49h0Z" class="cls-1"></path>
  <path d="m1031.43,292.16c-12.53,7.32-17.29,24-9.86,36.61,8.91,15.13,28.19,17.03,42.8,9.68,2.31-1.16,3.48-7.36-.09-5.57-11.48,5.78-25.92,5.1-35.08-4.61-8.33-8.83-9.04-23.91,2.33-30.55,2.2-1.29,3.33-7.56-.09-5.57h0Z" class="cls-1"></path>
  <path d="m1043.79,304.88c-7.24.67-12.03,9.44-7.66,15.62,4.67,6.58,13.33,3.35,16.2-3,1.03-2.28-1.6-1.95-2.38-.22-1.99,4.39-8.04,4.33-10.96,1.08-3.7-4.13-1.23-9.6,4.15-10.1,1.39-.13,2.58-3.55.64-3.37h0Z" class="cls-1"></path>
  <path d="m776.71,426.77c10.48-2.59,26.44-.94,29.92,11.6s-10.26,26.59-21.45,29.65c-10.61,2.91-23.36-2-26.76-13.04-4.15-13.48,6.23-24.38,18.28-28.21,2.38-.75,4.34-7.09,1.14-6.07-10.94,3.47-20.52,11.29-23.93,22.56-3.4,11.25.41,24.01,11.5,29.22,10.7,5.03,22.83,1.98,31.63-5.37s17.02-20.19,14.43-31.92c-3.27-14.82-21.3-17.54-33.64-14.49-2.44.6-4.47,6.89-1.14,6.07Z" class="cls-1"></path>
  <path d="m1018.67,313.79c-25.85,11.87-51.71,23.73-77.56,35.6-41.16,18.89-82.33,37.78-123.49,56.67-9.39,4.31-18.78,8.62-28.16,12.93-2.36,1.08-3.55,7.24.09,5.57,25.85-11.87,51.71-23.73,77.56-35.6,41.16-18.89,82.33-37.78,123.49-56.67,9.39-4.31,18.78-8.62,28.16-12.93,2.36-1.08,3.55-7.24-.09-5.57h0Z" class="cls-1"></path>
  <path d="m1024.75,326.55c-36.5,16.91-73,33.81-109.5,50.72-17.92,8.3-35.85,16.6-53.77,24.9-17.69,8.2-35.34,16.54-51.9,26.88-2.15,1.34-3.25,7.65.09,5.57,16.57-10.34,34.21-18.68,51.9-26.88,17.92-8.31,35.85-16.6,53.77-24.9,36.5-16.91,73-33.81,109.5-50.72,2.36-1.09,3.54-7.25-.09-5.57h0Z" class="cls-1"></path>
  <path d="m803.15,460.58c45.23,37.9,88.8,77.75,130.57,119.44,2.19,2.19,6-3.29,4.19-5.1-42.03-41.94-85.87-82.05-131.38-120.19-1.99-1.67-5.56,4.01-3.38,5.85h0Z" class="cls-1"></path>
  <path d="m784.16,475.09c15.72,13.52,31.44,27.03,47.16,40.55,25.08,21.56,50.15,43.12,75.23,64.68,5.78,4.97,11.56,9.94,17.35,14.91,1.96,1.68,5.54-3.98,3.38-5.85-15.72-13.52-31.44-27.03-47.16-40.55-25.08-21.56-50.15-43.12-75.23-64.68-5.78-4.97-11.56-9.94-17.35-14.91-1.96-1.68-5.54,3.98-3.38,5.85h0Z" class="cls-1"></path>
  <path d="m914.72,630.77c3.55,7.1,9.04,10.43,16.7,11.99,9.07,1.85,18.92,2.57,28.1,1.12,6.83-1.08,14-3.28,19.74-7.24,2.56-1.77,5.09-3.99,6.74-6.66,1.83-2.98,1.4-6.67,1.29-10.08-.47-14.72-4.84-33.38-16.26-43.63s-27.68-6.3-37.73,3.05c-13.72,12.78-16.73,31.79-18.85,49.51-.53,4.39,4.38,1.71,4.73-1.2,2.39-19.94,7.69-51.61,34.19-51.1,23.87.46,29.86,34.75,28.95,53.05l1.19-3.1c-6.59,9.44-21.08,12.03-31.81,11.94-6.24-.05-12.78-.61-18.87-2.02-6.62-1.54-10.9-4.65-13.93-10.71-1.25-2.49-5.37,2.74-4.19,5.1Z" class="cls-1"></path>
  <path d="m852.18,692.29c-8.33,11.32-25.1,10.02-37.5,8.72s-25.94-2.31-36.74,4.38-13.97,19.48-14.42,31.85c-.26,7.11.34,15.34-3.36,21.72-3.42,5.9-10.19,8.3-16.61,9.21-22.24,3.18-55.59-12.04-68.43,14.93-5.66,11.88-1.71,24.91-.6,37.3.62,6.89.51,14.34-4.32,19.82s-12.08,8.05-18.75,9.99c-38.37,11.13-80.35,11.16-119.25,2.9-3.08-.65-6.53,6.76-2.84,7.55,35.61,7.57,72.64,7.65,108.25.01,13.2-2.83,28.37-6.34,36.91-17.79,8.07-10.81,6.33-23.86,4.59-36.36-.92-6.59-2.19-14.13.2-20.56,2.6-6.99,9.57-10.12,16.47-11.33,13.64-2.39,27.2,2.18,40.87,1.47,12.39-.64,23.98-5.6,29.24-17.54,2.7-6.12,3.19-12.84,3.42-19.45.24-7.1-.3-15.39,3.53-21.7,8.45-13.94,30.55-9.42,43.81-8.43,13.97,1.04,29.59-.24,38.56-12.43.88-1.2,2.32-3.84,1.04-5.26s-3.18-.25-4.08.97h0Z" class="cls-1"></path>
  <path d="m1376.91,620.75c-2.22,26.09-4.44,52.18-6.67,78.26l-1.3,15.27c-.48,5.64-5.39,8.07-10.44,9.89-13.31,4.79-28.42,5-42.39,4.37-10.82-.49-25.17-1.21-33.75-8.83-4.86-4.32-4.84-10.91-5.7-16.95-1.4-9.82-2.52-19.68-3.48-29.55-1.85-18.95-3.12-37.95-4.65-56.92-.32-3.99-5.08.1-4.87,2.7,1.48,18.35,2.72,36.72,4.47,55.04.84,8.81,1.8,17.62,2.97,26.39.85,6.42.76,14.29,3.76,20.13,4.8,9.33,17.76,11.85,27.13,13.14,14.93,2.04,30.86,1.95,45.68-.89,9.1-1.74,20.86-5.15,24.85-14.55,1.39-3.27,1.32-7.2,1.62-10.7,1.39-16.35,2.78-32.7,4.18-49.05,1.15-13.48,2.3-26.97,3.45-40.45.14-1.62-1.31-1.86-2.48-1.43-1.52.56-2.26,2.7-2.39,4.13h0Z" class="cls-1"></path>
  <path d="m983.4,616.73c19.99,3.55,39.97,9.68,57.18,20.71,12.37,7.93,24.42,19.37,27.32,34.39,6.19,32.06-34.06,51.01-58.47,58.52-40.49,12.46-87.03,12.4-127.36-.76-24.6-8.03-62.64-27.21-58.75-58.81,2.03-16.45,16.02-28.41,29.53-36.22,19.7-11.39,42.46-16.84,64.9-19.39,3.06-.35,5.66-7.9,1.4-7.42-22.14,2.52-44.44,7.95-64.11,18.71-14.09,7.71-27.37,18.67-34.02,33.64-14.32,32.25,14.08,58.23,41.04,70.49,41.42,18.83,91.91,20.74,135.72,10,29.91-7.33,71.56-25.26,76.25-60.35,2.38-17.76-7.65-33.13-20.95-43.93-18.83-15.28-43.31-22.97-66.85-27.15-3.12-.55-6.52,6.89-2.84,7.55h0Z" class="cls-1"></path>
  <path d="m1076.76,347.82c-5.43,7.99-10.59,16.61-13.11,26.03-1.37,5.1-2.37,11.98,1.65,16.22,7.93,8.37,24.64-1.46,31.97-5.87,17.65-10.62,33.17-25.27,46.26-41.08,9.89-11.94,21.26-26.87,23.66-42.68.75-4.95.43-11.13-4.41-13.95-7.69-4.49-18.97,1.42-25.78,4.97-2.79,1.46-4.21,9.06.11,6.8,7.35-3.84,26.67-11.39,24.21,4.1-2,12.66-11.38,24.76-19.16,34.43-11.1,13.79-24.13,26.5-38.74,36.56-7.55,5.2-20.04,14.17-29.96,11.9-14.18-3.24,4-29.68,7.58-34.95,2.85-4.19-1.49-6.59-4.29-2.48h0Z" class="cls-1"></path>
  <path d="m1064.03,388.47c16.91,42.84,36.61,84.55,58.96,124.82.38.69,1.22.66,1.86.59,20-2.07,39.01-13.78,55.06-25.11,23.94-16.89,45.32-37.77,63.37-60.82,15.2-19.4,29.25-41.22,36.49-64.98,2.37-7.8,4.26-16.14,3.59-24.34-.28-3.48-.33-7.45-3.81-8.85-7.03-2.82-14.27-5.2-21.37-7.83-32.89-12.19-65.61-24.85-98.61-36.75-3.27-1.18-7.12,6.06-4.12,7.14,27.44,9.9,54.69,20.32,82.01,30.56,6.39,2.4,12.79,4.78,19.19,7.15,2.86,1.06,5.73,2.11,8.6,3.16,1.7.62,3.4,1.25,5.11,1.87,1.19.43,5.43,1.18,6.16,2.01,1.42,1.61,1.04,6.74,1.01,8.65-.07,3.95-.75,7.88-1.64,11.73-5.02,21.52-17.41,41.61-30.34,59.21-16.78,22.84-36.92,43.47-59.47,60.64-17.09,13.01-37.86,26.86-59.82,29.13l1.86.59c-22.12-39.86-41.62-81.11-58.35-123.51-1.56-3.96-6.87,2.03-5.73,4.92h0Z" class="cls-1"></path>
  <path d="m791.05,441.99c3.48,10.19-16.78,17.36-20.84,7.62-4.2-10.06,16.14-16.59,20.98-7.32.72,1.38,3.01-1.53,2.33-2.83-6.66-12.75-31.42-.26-25.86,12.68,5.74,13.36,30.5.78,26-12.39-.62-1.81-3.06.9-2.6,2.24Z" class="cls-1"></path>
</svg>