<svg id="visual" viewBox="0 0 600 600" width="600" height="600" xmlns="http://www.w3.org/2000/svg" xmlns:xlink="http://www.w3.org/1999/xlink" version="1.1"><rect x="0" y="0" width="600" height="600" fill="#931C1C"></rect><path d="M0 446L86 395L171 343L257 420L343 395L429 357L514 411L600 439L600 601L514 601L429 601L343 601L257 601L171 601L86 601L0 601Z" fill="#f5730a"></path><path d="M0 402L86 451L171 440L257 424L343 470L429 383L514 438L600 495L600 601L514 601L429 601L343 601L257 601L171 601L86 601L0 601Z" fill="#da5b09"></path><path d="M0 489L86 523L171 469L257 520L343 455L429 512L514 425L600 497L600 601L514 601L429 601L343 601L257 601L171 601L86 601L0 601Z" fill="#be4407"></path><path d="M0 505L86 518L171 501L257 537L343 535L429 495L514 486L600 529L600 601L514 601L429 601L343 601L257 601L171 601L86 601L0 601Z" fill="#a32d04"></path><path d="M0 580L86 539L171 541L257 523L343 553L429 546L514 524L600 545L600 601L514 601L429 601L343 601L257 601L171 601L86 601L0 601Z" fill="#871400"></path></svg>