<svg id="visual" viewBox="0 0 600 600" width="600" height="600" xmlns="http://www.w3.org/2000/svg" xmlns:xlink="http://www.w3.org/1999/xlink" version="1.1"><rect x="0" y="0" width="600" height="600" fill="#001220"></rect><path d="M0 369L14.3 367.5C28.7 366 57.3 363 85.8 367.2C114.3 371.3 142.7 382.7 171.2 393.7C199.7 404.7 228.3 415.3 257 424.2C285.7 433 314.3 440 343 441.2C371.7 442.3 400.3 437.7 428.8 431.7C457.3 425.7 485.7 418.3 514.2 409.7C542.7 401 571.3 391 585.7 386L600 381L600 601L585.7 601C571.3 601 542.7 601 514.2 601C485.7 601 457.3 601 428.8 601C400.3 601 371.7 601 343 601C314.3 601 285.7 601 257 601C228.3 601 199.7 601 171.2 601C142.7 601 114.3 601 85.8 601C57.3 601 28.7 601 14.3 601L0 601Z" fill="#fa7268"></path><path d="M0 404L14.3 412.5C28.7 421 57.3 438 85.8 438.2C114.3 438.3 142.7 421.7 171.2 422.2C199.7 422.7 228.3 440.3 257 439.8C285.7 439.3 314.3 420.7 343 416.3C371.7 412 400.3 422 428.8 437.7C457.3 453.3 485.7 474.7 514.2 475C542.7 475.3 571.3 454.7 585.7 444.3L600 434L600 601L585.7 601C571.3 601 542.7 601 514.2 601C485.7 601 457.3 601 428.8 601C400.3 601 371.7 601 343 601C314.3 601 285.7 601 257 601C228.3 601 199.7 601 171.2 601C142.7 601 114.3 601 85.8 601C57.3 601 28.7 601 14.3 601L0 601Z" fill="#ef5f67"></path><path d="M0 428L14.3 439.5C28.7 451 57.3 474 85.8 475.8C114.3 477.7 142.7 458.3 171.2 448C199.7 437.7 228.3 436.3 257 437.8C285.7 439.3 314.3 443.7 343 457.2C371.7 470.7 400.3 493.3 428.8 498.5C457.3 503.7 485.7 491.3 514.2 486.3C542.7 481.3 571.3 483.7 585.7 484.8L600 486L600 601L585.7 601C571.3 601 542.7 601 514.2 601C485.7 601 457.3 601 428.8 601C400.3 601 371.7 601 343 601C314.3 601 285.7 601 257 601C228.3 601 199.7 601 171.2 601C142.7 601 114.3 601 85.8 601C57.3 601 28.7 601 14.3 601L0 601Z" fill="#e34c67"></path><path d="M0 552L14.3 550.8C28.7 549.7 57.3 547.3 85.8 537.7C114.3 528 142.7 511 171.2 506.5C199.7 502 228.3 510 257 506.2C285.7 502.3 314.3 486.7 343 489.8C371.7 493 400.3 515 428.8 527.5C457.3 540 485.7 543 514.2 538C542.7 533 571.3 520 585.7 513.5L600 507L600 601L585.7 601C571.3 601 542.7 601 514.2 601C485.7 601 457.3 601 428.8 601C400.3 601 371.7 601 343 601C314.3 601 285.7 601 257 601C228.3 601 199.7 601 171.2 601C142.7 601 114.3 601 85.8 601C57.3 601 28.7 601 14.3 601L0 601Z" fill="#d53867"></path><path d="M0 550L14.3 548.7C28.7 547.3 57.3 544.7 85.8 538.7C114.3 532.7 142.7 523.3 171.2 521.8C199.7 520.3 228.3 526.7 257 531.2C285.7 535.7 314.3 538.3 343 537.5C371.7 536.7 400.3 532.3 428.8 532.3C457.3 532.3 485.7 536.7 514.2 536C542.7 535.3 571.3 529.7 585.7 526.8L600 524L600 601L585.7 601C571.3 601 542.7 601 514.2 601C485.7 601 457.3 601 428.8 601C400.3 601 371.7 601 343 601C314.3 601 285.7 601 257 601C228.3 601 199.7 601 171.2 601C142.7 601 114.3 601 85.8 601C57.3 601 28.7 601 14.3 601L0 601Z" fill="#c62368"></path></svg>