<svg id="visual" viewBox="0 0 600 600" width="600" height="600" xmlns="http://www.w3.org/2000/svg" xmlns:xlink="http://www.w3.org/1999/xlink" version="1.1"><rect x="0" y="0" width="600" height="600" fill="#931C1C"></rect><path d="M349 0L371 86L279 171L226 257L313 343L339 429L279 514L269 600L0 600L0 514L0 429L0 343L0 257L0 171L0 86L0 0Z" fill="#f5730a"></path><path d="M268 0L139 86L300 171L208 257L233 343L149 429L309 514L247 600L0 600L0 514L0 429L0 343L0 257L0 171L0 86L0 0Z" fill="#da5b09"></path><path d="M225 0L194 86L190 171L161 257L223 343L111 429L173 514L239 600L0 600L0 514L0 429L0 343L0 257L0 171L0 86L0 0Z" fill="#be4407"></path><path d="M116 0L113 86L98 171L118 257L156 343L111 429L143 514L175 600L0 600L0 514L0 429L0 343L0 257L0 171L0 86L0 0Z" fill="#a32d04"></path><path d="M90 0L109 86L92 171L53 257L115 343L56 429L109 514L30 600L0 600L0 514L0 429L0 343L0 257L0 171L0 86L0 0Z" fill="#871400"></path></svg>