<svg id="visual" viewBox="0 0 600 600" width="600" height="600" xmlns="http://www.w3.org/2000/svg" xmlns:xlink="http://www.w3.org/1999/xlink" version="1.1"><rect x="0" y="0" width="600" height="600" fill="#001220"></rect><path d="M371 600L369.5 585.7C368 571.3 365 542.7 369.2 514.2C373.3 485.7 384.7 457.3 395.7 428.8C406.7 400.3 417.3 371.7 426.2 343C435 314.3 442 285.7 443.2 257C444.3 228.3 439.7 199.7 433.7 171.2C427.7 142.7 420.3 114.3 411.7 85.8C403 57.3 393 28.7 388 14.3L383 0L600 0L600 14.3C600 28.7 600 57.3 600 85.8C600 114.3 600 142.7 600 171.2C600 199.7 600 228.3 600 257C600 285.7 600 314.3 600 343C600 371.7 600 400.3 600 428.8C600 457.3 600 485.7 600 514.2C600 542.7 600 571.3 600 585.7L600 600Z" fill="#fa7268"></path><path d="M406 600L414.5 585.7C423 571.3 440 542.7 440.2 514.2C440.3 485.7 423.7 457.3 424.2 428.8C424.7 400.3 442.3 371.7 441.8 343C441.3 314.3 422.7 285.7 418.3 257C414 228.3 424 199.7 439.7 171.2C455.3 142.7 476.7 114.3 477 85.8C477.3 57.3 456.7 28.7 446.3 14.3L436 0L600 0L600 14.3C600 28.7 600 57.3 600 85.8C600 114.3 600 142.7 600 171.2C600 199.7 600 228.3 600 257C600 285.7 600 314.3 600 343C600 371.7 600 400.3 600 428.8C600 457.3 600 485.7 600 514.2C600 542.7 600 571.3 600 585.7L600 600Z" fill="#ef5f67"></path><path d="M430 600L441.5 585.7C453 571.3 476 542.7 477.8 514.2C479.7 485.7 460.3 457.3 450 428.8C439.7 400.3 438.3 371.7 439.8 343C441.3 314.3 445.7 285.7 459.2 257C472.7 228.3 495.3 199.7 500.5 171.2C505.7 142.7 493.3 114.3 488.3 85.8C483.3 57.3 485.7 28.7 486.8 14.3L488 0L600 0L600 14.3C600 28.7 600 57.3 600 85.8C600 114.3 600 142.7 600 171.2C600 199.7 600 228.3 600 257C600 285.7 600 314.3 600 343C600 371.7 600 400.3 600 428.8C600 457.3 600 485.7 600 514.2C600 542.7 600 571.3 600 585.7L600 600Z" fill="#e34c67"></path><path d="M554 600L552.8 585.7C551.7 571.3 549.3 542.7 539.7 514.2C530 485.7 513 457.3 508.5 428.8C504 400.3 512 371.7 508.2 343C504.3 314.3 488.7 285.7 491.8 257C495 228.3 517 199.7 529.5 171.2C542 142.7 545 114.3 540 85.8C535 57.3 522 28.7 515.5 14.3L509 0L600 0L600 14.3C600 28.7 600 57.3 600 85.8C600 114.3 600 142.7 600 171.2C600 199.7 600 228.3 600 257C600 285.7 600 314.3 600 343C600 371.7 600 400.3 600 428.8C600 457.3 600 485.7 600 514.2C600 542.7 600 571.3 600 585.7L600 600Z" fill="#d53867"></path><path d="M552 600L550.7 585.7C549.3 571.3 546.7 542.7 540.7 514.2C534.7 485.7 525.3 457.3 523.8 428.8C522.3 400.3 528.7 371.7 533.2 343C537.7 314.3 540.3 285.7 539.5 257C538.7 228.3 534.3 199.7 534.3 171.2C534.3 142.7 538.7 114.3 538 85.8C537.3 57.3 531.7 28.7 528.8 14.3L526 0L600 0L600 14.3C600 28.7 600 57.3 600 85.8C600 114.3 600 142.7 600 171.2C600 199.7 600 228.3 600 257C600 285.7 600 314.3 600 343C600 371.7 600 400.3 600 428.8C600 457.3 600 485.7 600 514.2C600 542.7 600 571.3 600 585.7L600 600Z" fill="#c62368"></path></svg>