<svg id="visual" viewBox="0 0 600 600" width="600" height="600" xmlns="http://www.w3.org/2000/svg" xmlns:xlink="http://www.w3.org/1999/xlink" version="1.1"><rect x="0" y="0" width="600" height="600" fill="#ddd9ca"></rect><defs><linearGradient id="grad1_0" x1="0%" y1="0%" x2="100%" y2="100%"><stop offset="30%" stop-color="#ddd9ca" stop-opacity="1"></stop><stop offset="70%" stop-color="#ddd9ca" stop-opacity="1"></stop></linearGradient></defs><defs><linearGradient id="grad2_0" x1="0%" y1="0%" x2="100%" y2="100%"><stop offset="30%" stop-color="#ddd9ca" stop-opacity="1"></stop><stop offset="70%" stop-color="#ddd9ca" stop-opacity="1"></stop></linearGradient></defs><g transform="translate(600, 0)"><path d="M0 381.8C-34.8 382.7 -69.5 383.6 -98.8 368.8C-128.1 354 -152 323.6 -172 297.9C-192 272.3 -208.2 251.4 -236.2 236.2C-264.2 220.9 -304 211.2 -326.5 188.5C-348.9 165.8 -354 130.1 -360.3 96.5C-366.6 63 -374.2 31.5 -381.8 0L0 0Z" fill="#e4e0d1"></path></g><g transform="translate(0, 600)"><path d="M0 -381.8C33.5 -380.7 67.1 -379.5 98.8 -368.8C130.6 -358.2 160.5 -338.1 181 -313.5C201.5 -288.9 212.6 -259.8 241.1 -241.1C269.7 -222.4 315.6 -214.1 325.6 -188C335.6 -161.9 309.6 -118.1 313 -83.9C316.3 -49.6 349.1 -24.8 381.8 0L0 0Z" fill="#e4e0d1"></path></g></svg>