<svg id="visual" viewBox="0 0 600 600" width="600" height="600" xmlns="http://www.w3.org/2000/svg" xmlns:xlink="http://www.w3.org/1999/xlink" version="1.1"><rect x="0" y="0" width="600" height="600" fill="#001932"></rect><defs><linearGradient id="grad1_0" x1="0%" y1="0%" x2="100%" y2="100%"><stop offset="30%" stop-color="#001932" stop-opacity="1"></stop><stop offset="70%" stop-color="#001932" stop-opacity="1"></stop></linearGradient></defs><defs><linearGradient id="grad2_0" x1="0%" y1="0%" x2="100%" y2="100%"><stop offset="30%" stop-color="#001932" stop-opacity="1"></stop><stop offset="70%" stop-color="#001932" stop-opacity="1"></stop></linearGradient></defs><g transform="translate(600, 0)"><path d="M0 381.8C-20.7 333.2 -41.3 284.7 -74.8 279.2C-108.3 273.6 -154.5 311.2 -173 299.6C-191.5 288.1 -182.2 227.3 -202.2 202.2C-222.3 177.2 -271.6 187.8 -305.7 176.5C-339.8 165.2 -358.7 131.9 -368.8 98.8C-379 65.7 -380.4 32.9 -381.8 0L0 0Z" fill="#001122"></path></g><g transform="translate(0, 600)"><path d="M0 -381.8C23.9 -342.5 47.8 -303.2 78.9 -294.6C110.1 -286 148.6 -308.1 175 -303.1C201.4 -298.1 215.7 -266.1 246.1 -246.1C276.5 -226 323 -218 330.7 -190.9C338.3 -163.9 307.1 -117.8 309.1 -82.8C311.1 -47.8 346.5 -23.9 381.8 0L0 0Z" fill="#001122"></path></g></svg>