<svg id="visual" viewBox="0 0 600 600" width="600" height="600" xmlns="http://www.w3.org/2000/svg" xmlns:xlink="http://www.w3.org/1999/xlink" version="1.1"><rect x="0" y="0" width="600" height="600" fill="#15535e"></rect><defs><linearGradient id="grad1_0" x1="0%" y1="100%" x2="100%" y2="0%"><stop offset="30%" stop-color="#15535e" stop-opacity="1"></stop><stop offset="70%" stop-color="#15535e" stop-opacity="1"></stop></linearGradient></defs><defs><linearGradient id="grad2_0" x1="0%" y1="100%" x2="100%" y2="0%"><stop offset="30%" stop-color="#15535e" stop-opacity="1"></stop><stop offset="70%" stop-color="#15535e" stop-opacity="1"></stop></linearGradient></defs><g transform="translate(600, 600)"><path d="M-381.8 0C-363.6 -30 -345.3 -60 -331.3 -88.8C-317.3 -117.6 -307.5 -145.2 -291 -168C-274.5 -190.8 -251.3 -208.7 -233.3 -233.3C-215.4 -257.9 -202.7 -289.2 -181.5 -314.4C-160.3 -339.5 -130.5 -358.6 -98.8 -368.8C-67.2 -379.1 -33.6 -380.4 0 -381.8L0 0Z" fill="#144d57"></path></g><g transform="translate(0, 0)"><path d="M381.8 0C380.7 33.9 379.5 67.8 368.8 98.8C358.1 129.8 337.8 157.9 315.2 182C292.6 206.1 267.8 226.1 242.5 242.5C217.3 258.9 191.8 271.6 168 291C144.2 310.3 122.2 336.3 94.5 352.6C66.8 368.8 33.4 375.3 0 381.8L0 0Z" fill="#144d57"></path></g></svg>