<svg id="visual" viewBox="0 0 600 600" width="600" height="600" xmlns="http://www.w3.org/2000/svg" xmlns:xlink="http://www.w3.org/1999/xlink" version="1.1"><rect x="0" y="0" width="600" height="600" fill="#fcd09d"></rect><defs><linearGradient id="grad1_0" x1="0%" y1="0%" x2="100%" y2="100%"><stop offset="30%" stop-color="#fcd09d" stop-opacity="1"></stop><stop offset="70%" stop-color="#fcd09d" stop-opacity="1"></stop></linearGradient></defs><defs><linearGradient id="grad2_0" x1="0%" y1="0%" x2="100%" y2="100%"><stop offset="30%" stop-color="#fcd09d" stop-opacity="1"></stop><stop offset="70%" stop-color="#fcd09d" stop-opacity="1"></stop></linearGradient></defs><g transform="translate(600, 0)"><path d="M0 381.8C-32.8 373.8 -65.7 365.8 -94.7 353.5C-123.8 341.2 -149 324.6 -180.5 312.6C-212 300.6 -249.6 293.2 -270 270C-290.4 246.8 -293.6 207.8 -306.6 177C-319.5 146.2 -342.3 123.6 -356.4 95.5C-370.6 67.4 -376.2 33.7 -381.8 0L0 0Z" fill="#f9c492"></path></g><g transform="translate(0, 600)"><path d="M0 -381.8C32.9 -370.8 65.7 -359.9 91.6 -341.9C117.5 -324 136.5 -299.2 167 -289.3C197.5 -279.3 239.5 -284.3 270 -270C300.5 -255.7 319.6 -222.1 326.5 -188.5C333.4 -154.9 328 -121.2 335.2 -89.8C342.4 -58.4 362.1 -29.2 381.8 0L0 0Z" fill="#f9c492"></path></g></svg>