<svg id="visual" viewBox="0 0 600 600" width="600" height="600" xmlns="http://www.w3.org/2000/svg" xmlns:xlink="http://www.w3.org/1999/xlink" version="1.1"><rect x="0" y="0" width="600" height="600" fill="#eaff99"></rect><defs><linearGradient id="grad1_0" x1="0%" y1="0%" x2="100%" y2="100%"><stop offset="30%" stop-color="#eaff99" stop-opacity="1"></stop><stop offset="70%" stop-color="#eaff99" stop-opacity="1"></stop></linearGradient></defs><defs><linearGradient id="grad2_0" x1="0%" y1="0%" x2="100%" y2="100%"><stop offset="30%" stop-color="#eaff99" stop-opacity="1"></stop><stop offset="70%" stop-color="#eaff99" stop-opacity="1"></stop></linearGradient></defs><g transform="translate(600, 0)"><path d="M0 381.8C-33.8 376.5 -67.7 371.2 -95.5 356.4C-123.3 341.7 -145.1 317.5 -176 304.8C-206.9 292.2 -247 290.9 -270 270C-293 249.1 -299 208.4 -302.2 174.5C-305.5 140.6 -305.9 113.4 -318.8 85.4C-331.6 57.4 -356.7 28.7 -381.8 0L0 0Z" fill="#daed8e"></path></g><g transform="translate(0, 600)"><path d="M0 -381.8C32.2 -375.6 64.4 -369.4 97.1 -362.2C129.7 -355.1 162.8 -347.1 190.9 -330.7C219 -314.3 242.2 -289.6 263 -263C283.9 -236.5 302.5 -208.1 307.4 -177.5C312.4 -146.9 303.8 -114.1 313.9 -84.1C324.1 -54.2 352.9 -27.1 381.8 0L0 0Z" fill="#daed8e"></path></g></svg>