<svg id="visual" viewBox="0 0 600 600" width="600" height="600" xmlns="http://www.w3.org/2000/svg" xmlns:xlink="http://www.w3.org/1999/xlink" version="1.1"><rect x="0" y="0" width="600" height="600" fill="#ffb74d"></rect><defs><linearGradient id="grad1_0" x1="0%" y1="100%" x2="100%" y2="0%"><stop offset="30%" stop-color="#ffb74d" stop-opacity="1"></stop><stop offset="70%" stop-color="#ffb74d" stop-opacity="1"></stop></linearGradient></defs><defs><linearGradient id="grad2_0" x1="0%" y1="100%" x2="100%" y2="0%"><stop offset="30%" stop-color="#ffb74d" stop-opacity="1"></stop><stop offset="70%" stop-color="#ffb74d" stop-opacity="1"></stop></linearGradient></defs><g transform="translate(600, 600)"><path d="M-381.8 0C-362.8 -30.2 -343.8 -60.5 -327.4 -87.7C-311.1 -115 -297.3 -139.2 -284.9 -164.5C-272.6 -189.8 -261.7 -216.1 -248.2 -248.2C-234.7 -280.3 -218.7 -318 -190.9 -330.7C-163.1 -343.3 -123.6 -330.8 -89.8 -335.2C-56 -339.5 -28 -360.7 0 -381.8L0 0Z" fill="#f1a83a"></path></g><g transform="translate(0, 0)"><path d="M381.8 0C360.7 28.4 339.6 56.8 334.2 89.6C328.8 122.3 339.1 159.5 330.7 190.9C322.3 222.4 295.1 248.2 264.5 264.5C233.8 280.7 199.6 287.5 169.5 293.6C139.4 299.7 113.2 305.1 85.7 319.7C58.1 334.3 29 358.1 0 381.8L0 0Z" fill="#f1a83a"></path></g></svg>