<svg viewBox="0 0 1920 1080" xmlns="http://www.w3.org/2000/svg" id="Layer_1">
  <defs>
    <style>
      .cls-1 {
        fill: #15535e;
        stroke-width: 0px;
      }
    </style>
  </defs>
  <g>
    <path d="m912.45,166.52c1.83-5.83-.71-13.47-7.66-14.12s-11.65,5.78-12.14,11.92l3.52-3.03c-6.92-9.24-19.5-1.07-18.13,9.02l3.21-3.32c-9.61-5.49-18.71,5.99-14.04,14.94l2.94-4.26c-8.51-3.5-16.33,5.31-13.28,13.61l3.13-3.84c-9.44-3.94-17.83,4.76-16.1,14.17l3.45-3.55c-9.79-11.2-25.98-6.35-31.03,6.73l2.98-2.12c-7.44-4.45-14.98,4.07-12.05,11.43l3.13-3.84c-9.77-6.77-20.9,4.45-17.13,14.68l3.45-3.55c-7.09-8.15-18.16,1.27-14.98,10.27l3.45-3.55c-2.43-4.12-7.8-3.76-11.27-1.1-4.88,3.74-5.19,10.45-4.84,16.05l3.52-3.03c-7.36-10.25-20.71,1.81-15.25,11.58,1.15,2.06,3.86-2.15,3.45-3.55-1.29-4.42-6.71-4.94-9.98-2.21-4.46,3.73-3.59,10.23-.31,14.32l2.94-4.26c-9.52-6.31-19.16,5.47-14.47,14.58l3.26-3.97c-7.86-8.18-18.75.75-16.99,10.46l3.45-3.55c-8.61-8.62-20.49,3.33-15.16,12.93l3.26-3.97c-8.06-8.37-19.12,2.66-14.7,11.9l2.94-4.26c-9.35-4.27-17.99,7.88-11.26,15.49l2.53-4.38c-10.36-3.09-18.09,8.83-13.01,17.64l1.11-3.81c-3.72,3.48-8.86,8.86-6.92,14.5,1.47,4.28,6.53,6.02,9.86,2.83,1.54-1.47,1.67-5.92-1.03-3.65-2.99,2.52-3.65,7.07-.32,9.71,4.79,3.79,10.22-2.15,12.93-5.67l-1.93-2.73c-2.61,3.49-2.62,8.06,1.44,10.62,5.13,3.23,10.85-1.58,14.44-4.92l-1.88-2.61c-2.65,4.76-.6,10.59,4.95,12.05,6.77,1.78,12.28-5.1,15.56-9.95l-3.2-.32c-.72,6.44,4.89,11.24,11.3,10.47,7.24-.87,11.98-7.81,15.71-13.35l-3.19.78c2.92,14.1,20.62,11.77,24.36-.44l-3.56.9c-.03,4.33,3.45,7.42,7.76,7.48,5.12.07,9.19-4.24,12.43-7.63l-2.33-2.15c-2,3.54-2.34,8.94,1.77,11.27s8.55-.55,10.64-4.11c1.26-2.14-.4-4.53-2.33-2.15-2.84,3.51-3.97,9.36.05,12.56,4.28,3.39,9.76.37,12.08-3.76,1.56-2.78-1.15-4.38-2.73-1.58-2.75,4.89-10.89-.28-7.47-4.5l-2.33-2.15c-2.29,3.89-9.33.19-6.96-4.01,1.27-2.24-.26-4.32-2.33-2.15s-4.75,5.1-7.99,5.49c-2.92.35-6.51-1.4-6.49-4.71.02-2.76-3.13-.48-3.56.9-3.03,9.9-15.64,6.04-17.39-2.38-.42-2.04-2.69.04-3.19.78-2.59,3.85-5.67,8.6-10.43,9.9-3.93,1.07-10.73-1.3-10.16-6.38.31-2.78-2.15-1.89-3.2-.32-2.03,3.01-4.84,6.66-8.79,6.86-2.31.12-8.15-2.43-6.27-5.8.86-1.55.2-4.55-1.88-2.61s-4.09,3.92-6.91,4.46c-1.74.33-2.69.38-4.14-.69-.55-.41-2.54-2.19-1.87-3.09,1.58-2.12.22-5.52-1.93-2.73-1.55,2.02-3.45,4.92-6.32,4.52-1.02-.14-3.6-1.95-3.33-2.18l-1.03-3.65c-2.52,2.42-4.63-1.51-4.88-3.1-.49-3.12,1.89-4.93,4.01-6.92.94-.88,1.85-2.53,1.11-3.81-3.37-5.84,2.15-10.6,7.94-8.87,1.65.49,3.59-3.18,2.53-4.38-1.91-2.15-1.89-2.6-.22-5.23s2.56-3.13,5.6-1.74c2.08.95,3.66-2.74,2.94-4.26-.38-4.69,1.11-6.72,4.45-6.08,1.51.24,2.75.94,3.74,2.11,1.76,1.82,4.17-2.32,3.26-3.97-1.43-2.57.67-7.28,3.85-7.19,1.86.05,3.48.88,4.79,2.19,1.8,1.8,3.72-2.08,3.45-3.55l2.9-5.56c.94-.29,1.88-.35,2.81-.16,1.72.23,3.17,1.11,4.37,2.36,1.78,1.85,4.1-2.33,3.26-3.97-1.65-3.21-.14-7.43,4.1-7.53,1.71-.04,3.08.52,4.49,1.46,1.72,1.14,4.02-2.91,2.94-4.26-1.14-1.43-3.75-5.14-1.6-6.9,1.7-1.39,4.48.12,4.99,1.89l3.45-3.55c-1.57-1.98-1.2-3.54,1.09-4.67.68-1.74,1.76-2.39,3.26-1.94,1.83.14,3.39,1.57,4.39,2.96,1.35,1.88,3.6-1.84,3.52-3.03-.22-3.48-.67-7.06,2.12-9.55,2.28-2.04,5.24-2.23,6.96.68,1.18,1.99,3.96-2.1,3.45-3.55-2.24-6.34,5.49-6.15,8.08-3.17,1.56,1.79,4-2.06,3.45-3.55-2.86-7.74,5.36-10.81,10.86-7,1.64,1.13,3.65-2.55,3.13-3.84-1.79-4.49,2.72-5.58,5.78-3.76,1.26.75,2.63-1.22,2.98-2.12,4.1-10.62,17.55-10.96,24.45-3.07,1.69,1.94,3.7-2.17,3.45-3.55-1.15-6.26,5.07-8.49,9.84-6.5,1.78.75,3.69-2.31,3.13-3.84-1.88-5.12,3.14-7.52,7.01-5.93,2.05.84,3.76-2.69,2.94-4.26-3.04-5.83,3.63-9.02,8.16-6.43,1.56.89,3.38-2.02,3.21-3.32-1.06-7.73,7.72-7.45,11.08-2.96,1.47,1.96,3.43-1.94,3.52-3.03.19-2.42,3.52-5.06,5.88-5.08,1.34-.01,2.63.45,3.73,1.2,2.44,1.65,4,4.93,3.08,7.87-1.04,3.32,2.51,2.92,3.33.31h0Z" class="cls-1"></path>
    <path d="m913.09,167.65c3.38-5.47,11.99-3.73,15.05.98.39.6,1.13.44,1.66.18,5.52-2.67,13.4,3.53,8.09,9.03-.59.61-1.78,3.83.06,3.77,2.04-.07,7.7,3.5,4.95,6.25-.8.8-2.5,3.89-.39,4.23,2.77.45,4.83,2.65,4.17,5.6-.39,1.74,1.08,2.4,2.36,1.36,2.19-1.78,4.4-1.01,6.19.45.51.41,1.46-.08,1.83-.45,4.06-4.12,11.44-1.37,12.66,4,.16.71.75.86,1.38.79,4.62-.51,9.17,3.6,8.4,8.39-.09.56-.11,1.52.53,1.81,3.81,1.73,6.48,5.19,6.06,9.58-.21,2.16,1.53,2.32,2.81.9,3.35-3.75,9.43-1.58,11.51,2.26.58,1.07,2.17-.04,2.59-.62,1.64-2.24,5.04-2.64,7.4-1.26,3.82,2.24,2.56,7.49-1.84,8.02l-.89,4.72c6.35-1.12,12.23,1.77,15.5,7.26.63,1.06,2.13-.04,2.59-.62,8.02-9.97,24.54,3.46,14.98,12.23-.9.83-2.53,4.61.07,4.19,4.98-.81,11.88,4.24,7.62,9.83-.81,1.07-1.53,4.89,1,3.53,6.47-3.48,14.36-1.36,18.56,4.56.26.37.76.49,1.18.38,8.64-2.33,17.81,9.4,7.75,14.54-1.31.67-3,3.93-.87,4.57,2.49.74,5.12,1.51,7.25,3.04,1.42,1.01,6.02,6.29,1.93,7.71l-.41,4.52c3.27-2.04,8.05.26,8.21,4.25.03.68.3,1.2.99,1.35,1.54.34,3.17.68,4.59,1.39l1.11.61c2.02.91,2.07,2.14.16,3.68-1.97-1.02-3.77,2.79-2.94,4.26,3.78,6.68-2.04,13.53-8.57,15.08-7.67,1.82-15.61-1.43-22.51-4.44-1.39-.6-2.5,1.1-2.98,2.12-3.84,8.31-14.57,5.73-18.37-.86-.81-1.4-2.59.58-2.99,1.2-4.32,6.57-14.89,4.9-18.94-.9-1.34-1.92-3.56,1.87-3.52,3.03.37,10.06-12.02,9.41-15.95,2.53-1.1-1.92-3.25,1.6-3.47,2.45-1.64,6.43-10.53,6.77-14.86,3.32-1.62-1.29-3.51,2.63-3.13,3.84,1.39,4.46-1.35,8.73-6.14,9.1-1.84.14-3.87,3.2-2.22,4.67,2.88,2.56,3.53,7.64-.26,9.77-.99.56-3.01,3.62-1.28,4.44,1.21.57,2.61,1.22,3.2,2.5.8,1.73-.38,6.21-2.24,6.99-1.12.46-2.92,3.64-1.28,4.44,3.58,1.74,5.32,7.67.83,9.51-1.28.53-3.03,4.14-.87,4.57s8.41,4.09,3.22,7.49c-1.07.7-2.25,2.35-1.79,3.73,1.2,3.55,1.1,7.05-1.2,10.15-1.58,2.13-.16,5.55,1.93,2.73,3.54-4.76,4.85-10.29,2.91-16.01l-1.79,3.73c6.55-4.29,7.69-14.82-1.49-16.62l-.87,4.57c7.01-2.88,9.2-14.74,1.72-18.39l-1.28,4.44c7.69-3.2,9.93-14.44,1.59-18.36l-1.28,4.44c6.63-3.71,8.76-13.36,2.82-18.64l-2.22,4.67c8.12-.62,14.04-9.18,11.59-17.03l-3.13,3.84c7.96,6.34,18.91.05,21.17-8.8l-3.47,2.45c7.14,12.49,23.45,3.85,22.99-8.59l-3.52,3.03c6.26,8.97,19.34,6.99,24.92-1.49l-2.99,1.2c6.37,11.07,20.19,7.5,24.95-2.79l-2.98,2.12c9.57,4.17,21.89,8.52,31.15,1.32,6.13-4.76,9.88-13.28,5.81-20.48l-2.94,4.26c4,2.06,7.78-2.3,8.38-6.07.92-5.8-5.26-7.97-9.81-8.96l.99,1.35c-.25-6.12-6.81-9.76-12.07-6.48-1.12.7-3.02,5.42-.41,4.52,4.23-1.46,6.55-5.76,6.04-10.17-.74-6.3-7.25-8.53-12.53-10.1l-.87,4.57c9.16-4.67,11.63-19.62.33-23.47-2.16-.74-4.93.09-6.81-.77-.59-.27-1.48-1.63-2.05-2.12-1.29-1.11-2.73-1.99-4.3-2.64-4.9-2.03-10.18-1.61-14.8.87l1,3.53c5.75-7.54,2.04-19.03-8.66-17.28l.07,4.19c5.55-5.1,7.65-14.54,2.15-20.53s-15.31-4.03-20.09,1.92l2.59-.62c-3.76-6.33-10.67-9.29-17.86-8.02-1.89.34-3.62,5.05-.89,4.72,6.12-.74,11.2-8.56,8.17-14.36-3.1-5.93-11.32-4.57-14.77.14l2.59-.62c-3.55-6.55-12.14-6.13-16.7-1.03l2.81.9c.55-5.68-1.75-10.76-7.12-13.2l.53,1.81c1.11-6.95-4.05-12.97-11.19-12.18l1.38.79c-1.78-7.79-11.91-10.03-17.33-4.52l1.83-.45c-3.17-2.58-6.82-2.01-9.84.44l2.36,1.36c1-4.51-1.34-8.71-6.05-9.47l-.39,4.23c4.52-4.52,3.99-15-4.17-14.7l.06,3.77c7.61-7.88.9-21.41-10.1-16.08l1.66.18c-5.16-7.93-16.49-5.96-21.04,1.41-1.68,2.73,1.05,4.29,2.73,1.58h0Z" class="cls-1"></path>
    <path d="m811.09,344.56c-4.97,1.69-10.9,4.3-12.08,10.07-.89,4.36,1.8,9.22,6.64,8.45l.89-4.72c-9.12,1.83-12.88,15.08-3.3,19.23l1.28-4.44c-10.62,4.67-12.78,20.41-1.16,25.37l1.28-4.44c-12.03,6.59-12.02,25.39,2.78,28.34l.87-4.57c-5.21,2.93-10.65,7.46-11.3,13.85-.52,5.12,2.57,10.53,8.06,10.72,1.98.07,4.16-4.59,1.81-4.8-16.37-1.45-22.01,23.88-4.67,26.85l.39-4.23c-12.65,9.39-12.08,29.68,3.5,35.69l1.28-4.44c-5.71,3.78-11.8,7.94-14.62,14.45-2.36,5.44-2.31,12.17,2.2,16.45l1.59-4.15c-6.87,4.69-14.55,12.01-12.5,21.29,1.72,7.79,10.53,9.93,15.85,4.33l-2.33-2.15c-3.5,5.41-2.82,13.93,3.74,16.74s12.92-2.17,15.02-8c1.18-3.28-2.41-2.86-3.33-.31-3.32,9.22-18.19,1.62-12.7-6.86,1.42-2.2-.31-4.28-2.33-2.15-3.68,3.87-9.28-.66-10.14-4.5-1.43-6.4,4.13-10.87,8.8-14.06.9-.62,2.81-2.99,1.59-4.15-9.06-8.61,2.15-17.93,9.24-22.61.84-.56,3.13-3.72,1.28-4.44-11.59-4.47-15.91-19.47-5.09-27.49.98-.73,2.38-3.89.39-4.23-4.08-.7-7.61-3.54-8.7-7.64-1.62-6.1,4.25-10.1,9.76-9.61l1.81-4.8c-3.34-.12-5.96-2.88-6.15-6.25-.25-4.42,4.29-7.3,7.65-9.19,1.14-.64,3.14-4.11.87-4.57-9.1-1.81-14.1-13.96-4.51-19.2.96-.53,3.04-3.69,1.28-4.44-7.2-3.07-9.81-12.79-1.4-16.49,1.05-.46,2.97-3.7,1.28-4.44-3.97-1.72-7.64-8.47-.21-9.96,1.88-.38,3.59-5.15.89-4.72-4.54.72-3.43-5.04-1.28-7.04,1.22-1.13,3.42-1.53,4.94-2.05,1.83-.62,3.34-5.56.89-4.72h0Z" class="cls-1"></path>
    <path d="m812.17,553.29c7.63,10.43,21.89,5.97,25.64-5.35l-3.29,1.83c6.76,10.18,20.39,9.46,27.35-.06l-2.59.62c6.95,8.36,18.23,4.35,21.63-5.04l-3.49,1.41c4.58,10.05,16.9,9.02,21.87-.12l-3.2-.32c-1.18,6.54,2.61,13.93,9.84,14.47,6.72.5,11.9-5.11,13.44-11.13l-3.66,2.03c2.28,12.03,17.13,9.62,20.12-.6l-3.29,1.83c5.54,10.68,18.92,4.95,20.6-5.17l-3.47,2.45c6.4,10.37,19.14,1.14,17.53-8.8l-3.13,3.84c11.78,3.77,21.41-9.49,15.03-19.83l-1.59,4.15c5.5-3.84,7.38-12.91.84-16.83l-1.76,4.63c9.56-2.9,12.05-16.7,1.41-20.02l-1.35,4.76c11.65-2.66,15.47-20.06,2.69-24.28l-.8,4.1c6.24-5.59,6.54-17.38-2.1-20.91l-1.76,4.63c11.2-3.02,13.69-20.04.79-22.54l-1.81,4.8c9.79,1.71,11.16-15.35.98-12.56-1.88.52-3.44,5.42-.89,4.72,1.11-.52,2.07-.36,2.88.45,1.89.69,1.5,1.55-1.17,2.58-1.98-.35-4.15,4.35-1.81,4.8,6.37,1.24,10.74,10.63,1.91,13.02-1.21.33-3.71,3.83-1.76,4.63,4.51,1.85,8.09,8.78,3.7,12.71-.64.57-2.45,3.55-.8,4.1,7.25,2.4,10.3,12.85.83,15.02-1.64.37-3.61,4.06-1.35,4.76,4.7,1.46,7.33,8.66,1.29,10.5-1.35.41-3.57,3.55-1.76,4.63,2.35,1.4,4.73,5.84,1.71,7.95-1.17.82-2.49,2.69-1.59,4.15,4.29,6.94-1.74,13.69-9.15,11.32-2.01-.64-3.4,2.2-3.13,3.84,1.31,8.1-8.26,5.55-10.63,1.7-1.12-1.81-3.31,1.48-3.47,2.45-1.31,7.91-10.85,5.69-13.66.27-.85-1.64-3.06,1.03-3.29,1.83-2.3,7.87-11.94,4.14-13.15-2.22-.51-2.67-3.43,1.11-3.66,2.03-2.67,10.42-17.62,4.21-15.92-5.21.49-2.69-2.3-1.99-3.2-.32-3.63,6.68-12.66,4.81-15.5-1.44-.92-2.01-3.03.16-3.49,1.41-2.55,7.03-10.94,6.32-15.05,1.38-.75-.9-2.05-.13-2.59.62-5.89,8.06-16.9,6.74-22.16-1.17-1.02-1.53-2.99.92-3.29,1.83-3,9.09-14.08,8.48-19.05,1.7-1.37-1.88-4.47,2.31-3.26,3.97h0Z" class="cls-1"></path>
    <path d="m707.91,310.69c-.57-5.78,2.97-10.86,8.57-12.36,1.35-.36,2.46-3.86.64-3.37-7.46,2-12.67,9.54-11.91,17.23.22,2.22,2.85-.06,2.7-1.5h0Z" class="cls-1"></path>
    <path d="m724.62,304.58c-2.95,2.28-4.62,6.5-3.33,10.12s5.43,5.44,9.09,4.48c1.35-.36,2.47-3.85.64-3.37-4.85,1.28-10.56-4.84-5.66-8.62,1.28-.99,1.21-4.11-.74-2.61h0Z" class="cls-1"></path>
    <path d="m753.54,302.51c-2.95,2.28-4.62,6.5-3.33,10.12s5.43,5.44,9.09,4.48c1.35-.36,2.47-3.85.64-3.37-4.85,1.28-10.56-4.84-5.66-8.62,1.28-.99,1.21-4.11-.74-2.61h0Z" class="cls-1"></path>
    <path d="m735.12,292.19c-1.66-5.36,1.52-9.73,6.94-10.35,1.39-.16,2.57-3.59.64-3.37-7.61.86-12.41,8.74-10.18,15.95.56,1.82,3.02-.89,2.6-2.24h0Z" class="cls-1"></path>
    <path d="m765.99,267.14c-.76-3.87,1.14-7.39,4.68-9.03,1.31-.61,1.97-4.03-.05-3.09-5.36,2.49-8.36,8.6-7.23,14.36.36,1.81,2.87-.87,2.6-2.24h0Z" class="cls-1"></path>
    <path d="m781.12,250.35c3.02-3.01,6.46-5.41,10.32-7.22,1.31-.61,1.96-4.04-.05-3.09-4.1,1.92-7.8,4.51-11.01,7.71-.54.53-1.3,1.61-.93,2.42.33.73,1.1.75,1.67.19h0Z" class="cls-1"></path>
    <path d="m806.3,243.01c3.4-2.05,7.01-3.35,10.93-3.95,1.38-.21,2.55-3.67.64-3.37-4.14.64-8.04,2.07-11.62,4.23-1.21.73-1.83,4.23.05,3.09h0Z" class="cls-1"></path>
    <path d="m816,227.27c1.99-4.42,5.34-7.93,9.53-10.33,1.23-.7,1.86-4.19-.05-3.09-5.33,3.05-9.34,7.62-11.86,13.2-.29.63-.26,1.65.54,1.83.85.19,1.57-1.01,1.83-1.6h0Z" class="cls-1"></path>
    <path d="m832.71,226.29c5.63-1.64,11.26-.53,15.92,3.01,1.17.89,3.13-2.29,1.88-3.25-4.96-3.77-11.18-4.87-17.16-3.13-1.34.39-2.44,3.9-.64,3.37h0Z" class="cls-1"></path>
    <path d="m867.43,209.01c2.71-4.98,6.96-8.81,12.22-10.95,1.27-.51,2.31-4.05.64-3.37-6.38,2.59-11.51,7.14-14.81,13.19-1.09,1.99.85,3.15,1.95,1.12h0Z" class="cls-1"></path>
    <path d="m889.43,201.11c3.88.71,7.65-.42,10.7-2.89,1.25-1.02,1.17-4.16-.74-2.61-2.48,2.01-5.56,2.64-8.67,2.07-1.42-.26-2.97,3.13-1.29,3.43h0Z" class="cls-1"></path>
    <path d="m888.56,185.46c3.53-4.72,8.84-7.23,14.71-7.15,1.46.02,2.9-3.41,1.29-3.43-6.93-.1-13.24,3.09-17.38,8.63-1.14,1.52-.12,3.96,1.38,1.95h0Z" class="cls-1"></path>
    <path d="m918.57,188.98c4.09-1.53,8.61-.6,11.66,2.57,1.19,1.24,3.32-1.8,2.33-2.83-3.48-3.62-8.61-4.89-13.35-3.11-1.29.48-2.35,4.01-.64,3.37h0Z" class="cls-1"></path>
    <path d="m926.71,203.51c3.42.55,6.09,3.2,6.74,6.59.17.88,1.19.57,1.67.19.69-.56,1.1-1.55.93-2.42-.77-4.03-4.02-7.13-8.05-7.78-1.43-.23-2.96,3.16-1.29,3.43h0Z" class="cls-1"></path>
    <path d="m798.63,266.39c-7.04,1.74-11.6,9.26-10.18,16.31.37,1.81,2.88-.87,2.6-2.24-.99-4.93,2.13-9.51,6.94-10.7,1.36-.33,2.48-3.83.64-3.37h0Z" class="cls-1"></path>
    <path d="m789.82,295.92c-1.92,4.29-.48,9.68,3.82,11.9,1.38.71,3.23-2.55,1.88-3.25-3.02-1.55-4.75-5.21-3.31-8.43.28-.64.27-1.65-.54-1.83s-1.57,1.01-1.83,1.6h0Z" class="cls-1"></path>
    <path d="m799.98,315.64c-1.78,5.63,2.02,11.34,8.2,10.41,1.39-.21,2.55-3.66.64-3.37-3.74.56-7.71-2.87-6.46-6.81.75-2.37-1.79-2.08-2.38-.22h0Z" class="cls-1"></path>
    <path d="m827.51,328.55c-6.63,2.46-10.64,10.5-7.77,17.17.77,1.78,3.16-.94,2.6-2.24-1.92-4.47-.22-9.8,4.54-11.56,1.29-.48,2.35-4.01.64-3.37h0Z" class="cls-1"></path>
    <path d="m814.58,289.36c-1.21,8.93,5.78,16.35,14.86,14.94,1.38-.21,2.55-3.67.64-3.37-7.23,1.12-13.87-4.81-12.86-12.24.33-2.43-2.41-.94-2.63.67h0Z" class="cls-1"></path>
    <path d="m823.24,370.16c-3.65,4.07-5.67,9.09-5.97,14.54-.12,2.17,2.63-.1,2.7-1.5.23-4.21,1.84-7.96,4.65-11.09,1.29-1.44.28-3.8-1.38-1.95h0Z" class="cls-1"></path>
    <path d="m827.48,388.55c-.9,5.55,2.46,10.99,8.05,12.19,1.4.3,2.97-3.07,1.29-3.43-4.18-.89-7.41-5.11-6.71-9.42.4-2.42-2.37-.93-2.63.67h0Z" class="cls-1"></path>
    <path d="m828.37,418.62c-4.67,7.11-1.57,16.7,7.19,18.26,1.42.25,2.96-3.13,1.29-3.43-6.36-1.13-10.3-7.95-6.53-13.7,1.26-1.92-.7-3.02-1.95-1.12h0Z" class="cls-1"></path>
    <path d="m826.78,466.6c-2.63,4.75-2.46,10.66,1.26,14.8,1.14,1.27,3.29-1.76,2.33-2.83-2.66-2.96-3.64-7.23-1.64-10.84,1.1-1.99-.83-3.14-1.95-1.12h0Z" class="cls-1"></path>
    <path d="m839.59,493.46c.45,4.43,4.17,8.09,8.76,7.81,1.45-.09,2.84-3.53,1.29-3.43-3.47.21-6.98-2.28-7.34-5.88-.22-2.22-2.85.06-2.7,1.5h0Z" class="cls-1"></path>
    <path d="m818.77,496.2c-4.99,4.79-5.37,12.97,1.07,16.73,1.32.77,3.21-2.47,1.88-3.25-3.81-2.22-5.81-7.42-2.21-10.87,1.14-1.09,1.03-4.3-.74-2.61h0Z" class="cls-1"></path>
    <path d="m806.45,516.54c-4.37,4.6-3.21,12.46,3.46,13.93,1.39.31,2.97-3.06,1.29-3.43-3.82-.84-6.41-5.34-3.37-8.55,1.34-1.41.33-3.75-1.38-1.95h0Z" class="cls-1"></path>
    <path d="m838.75,527.59c-.03,5.36,3.13,10.32,8.18,12.28,1.47.57,3.24-2.72,1.88-3.25-4.39-1.71-7.37-5.78-7.35-10.53.01-2.2-2.7.08-2.7,1.5h0Z" class="cls-1"></path>
    <path d="m854.61,522.09c1.33,4.22,4.84,7.29,9.21,8.01,1.42.23,2.96-3.16,1.29-3.43-3.7-.6-6.77-3.23-7.9-6.81-.57-1.82-3.03.89-2.6,2.24h0Z" class="cls-1"></path>
    <path d="m940.15,423.41c.86,4.98-.28,9.89-3.4,13.89-1.17,1.5-.16,3.92,1.38,1.95,4.07-5.22,5.75-11.54,4.62-18.08-.31-1.8-2.84.87-2.6,2.24h0Z" class="cls-1"></path>
    <path d="m954.37,451.46c-.59,3.37-2.34,6.27-5.17,8.23-.7.49-1.42,1.38-1.33,2.3.07.71.65,1.3,1.38.8,4.11-2.85,6.89-7.04,7.75-11.99.42-2.42-2.35-.92-2.63.67h0Z" class="cls-1"></path>
    <path d="m961.26,488.94c2.94,3.48,2.61,8.54-2.06,10.23-1.3.47-2.37,4-.64,3.37,6.67-2.4,9.83-10.73,5.02-16.43-1.09-1.29-3.26,1.73-2.33,2.83h0Z" class="cls-1"></path>
    <path d="m965.6,508.79c-3.22,3.82-7.44,6.26-12.31,7.33-1.37.3-2.51,3.78-.64,3.37,5.68-1.25,10.58-4.31,14.32-8.75,1.24-1.47.23-3.86-1.38-1.95h0Z" class="cls-1"></path>
    <path d="m943.61,527.89c-2.4,3.06-6.59,3.94-10.14,2.52-1.46-.58-3.24,2.7-1.88,3.25,4.87,1.94,10.19.26,13.4-3.82,1.18-1.5.17-3.92-1.38-1.95h0Z" class="cls-1"></path>
    <path d="m957.04,462.54l-.53,9.6c-.05.86.71,1.1,1.38.8.82-.37,1.28-1.46,1.33-2.3l.53-9.6c.05-.86-.71-1.1-1.38-.8-.82.37-1.28,1.46-1.33,2.3h0Z" class="cls-1"></path>
    <path d="m953.26,399.87c3.24,4.35,3.76,10.35.36,14.78-1.16,1.51-.15,3.94,1.38,1.95,4.4-5.74,5.01-13.64.58-19.56-1-1.33-3.2,1.66-2.33,2.83h0Z" class="cls-1"></path>
    <path d="m955.33,358.37c1.1,1.26,1.95,3.16,1.23,4.84s-2.85,2.29-4.57,2.14c-1.45-.12-2.94,3.29-1.29,3.43,6.79.57,11.52-7.98,6.95-13.25-1.11-1.28-3.27,1.74-2.33,2.83h0Z" class="cls-1"></path>
    <path d="m970.96,337.38c-1.08,3.96-5.65,5.66-9.36,4.89-1.4-.29-2.97,3.08-1.29,3.43,6.15,1.28,11.71-3.24,13.28-8.99.21-.76-.21-1.43-1-1.35-.88.09-1.44,1.31-1.63,2.02h0Z" class="cls-1"></path>
    <path d="m956.93,221.47c4.37-.84,8.68,1.17,10.99,4.93.85,1.37,3.1-1.58,2.33-2.83-2.68-4.35-7.7-6.43-12.68-5.47-1.37.27-2.53,3.74-.64,3.37h0Z" class="cls-1"></path>
    <path d="m960.03,237.87c2.67,1.42,5.33,2.84,8,4.27,1.36.73,3.22-2.53,1.88-3.25-2.67-1.42-5.33-2.84-8-4.27-1.36-.73-3.22,2.53-1.88,3.25h0Z" class="cls-1"></path>
    <path d="m997.36,269.33c2.49,1.6,4.98,3.2,7.46,4.8,1.27.82,3.19-2.4,1.88-3.25-2.49-1.6-4.98-3.2-7.46-4.8-1.27-.82-3.19,2.4-1.88,3.25h0Z" class="cls-1"></path>
    <path d="m1015.04,261.94c3.79-.88,7.56,1.08,9.24,4.54.67,1.38,2.97-1.51,2.33-2.83-1.98-4.06-6.58-6.09-10.93-5.08-1.36.32-2.49,3.8-.64,3.37h0Z" class="cls-1"></path>
    <path d="m1023.21,290.59c3.11.33,5.78,2.94,5.9,6.12.03.82.66,1.14,1.38.8.76-.37,1.36-1.46,1.33-2.3-.15-4.09-3.19-7.61-7.32-8.05-1.44-.16-2.95,3.25-1.29,3.43h0Z" class="cls-1"></path>
    <path d="m1035.51,281.71c3.53-.28,6.74,1.41,8.46,4.51.77,1.38,3.04-1.55,2.33-2.83-1.89-3.4-5.62-5.42-9.5-5.11-1.45.12-2.83,3.55-1.29,3.43h0Z" class="cls-1"></path>
    <path d="m1056.48,299.38c2.57.95,4.75,3.88,3.82,6.71-.78,2.36,1.77,2.07,2.38.22,1.3-3.95-.2-8.65-4.32-10.18-1.48-.55-3.24,2.74-1.88,3.25h0Z" class="cls-1"></path>
    <path d="m1078.06,321.49c1.18,1.24,2,3.85.24,5.01-.73.49-1.37,1.37-1.33,2.3.04.74.67,1.26,1.38.8,3.42-2.26,5.15-7.67,2.04-10.94-1.18-1.24-3.31,1.8-2.33,2.83h0Z" class="cls-1"></path>
    <path d="m1050.71,323.71c-2.1,3.33-5.61,5.22-9.45,5.69-1.39.17-2.57,3.61-.64,3.37,5.09-.62,9.34-3.65,12.04-7.94,1.22-1.94-.73-3.05-1.95-1.12h0Z" class="cls-1"></path>
    <path d="m1006.66,317.7c-.67,1.52-2.21,2.41-3.77,2.76-1.36.31-2.5,3.79-.64,3.37,3.14-.7,5.51-3.02,6.78-5.91.27-.61.28-1.69-.54-1.83s-1.56.98-1.83,1.6h0Z" class="cls-1"></path>
    <path d="m1002.29,291.91c.32,2.74-1.03,5.14-3.7,6.04-.85.29-1.48,1.15-1.63,2.02-.1.61.13,1.64,1,1.35,4.45-1.5,7.59-6.19,7.04-10.91-.26-2.21-2.87.06-2.7,1.5h0Z" class="cls-1"></path>
    <path d="m1036.89,307.92c.08,1.03-.55,1.74-1.69,1.82-.89.07-1.53.8-1.83,1.6-.17.45-.35,1.89.54,1.83,3.27-.24,5.93-3.48,5.69-6.75-.06-.79-.65-1.19-1.38-.8s-1.39,1.44-1.33,2.3h0Z" class="cls-1"></path>
    <path d="m1061.09,282.4c3.16,1.1,5.48,4.71,4.11,8.01-.27.64-.28,1.65.54,1.83s1.59-1.01,1.83-1.6c1.8-4.33.02-9.86-4.61-11.48-1.49-.52-3.24,2.77-1.88,3.25h0Z" class="cls-1"></path>
    <path d="m937.26,478.11c-.4,3.58-1.55,6.93-3.64,9.89-.39.55-1.06,1.74-.47,2.39.56.61,1.45.12,1.85-.44,2.66-3.75,4.37-7.92,4.89-12.5.27-2.44-2.45-.95-2.63.67h0Z" class="cls-1"></path>
    <path d="m965.46,259.85c3.54-.37,7.05,1.85,8.3,5.16.68,1.8,3.1-.92,2.6-2.24-1.62-4.28-5.73-6.77-10.27-6.3-1.39.14-2.58,3.57-.64,3.37h0Z" class="cls-1"></path>
    <path d="m977.69,285.61c-.93,3.83-3.53,6.79-7.03,8.53-1.29.64-1.94,4.08.05,3.09,4.92-2.45,8.31-6.99,9.6-12.28.19-.76-.19-1.43-1-1.35-.87.09-1.46,1.31-1.63,2.02h0Z" class="cls-1"></path>
    <path d="m866.43,238.62c2.76-2.43,6.61-2.87,9.94-1.37,1.43.64,3.24-2.63,1.88-3.25-4.28-1.93-9.05-1.07-12.55,2.01-1.2,1.06-1.1,4.23.74,2.61h0Z" class="cls-1"></path>
    <path d="m889.67,224.42c3.34-4.3,8.17-6.83,13.61-7.18,1.45-.09,2.84-3.53,1.29-3.43-6.52.42-12.27,3.5-16.28,8.66-1.17,1.5-.16,3.93,1.38,1.95h0Z" class="cls-1"></path>
    <path d="m916.31,226.14c4.51,1.8,8.4,4.58,11.5,8.32,1.08,1.3,3.25-1.71,2.33-2.83-3.22-3.89-7.26-6.87-11.96-8.74-1.46-.58-3.24,2.7-1.88,3.25h0Z" class="cls-1"></path>
    <path d="m839.15,269.62c-.43-5,3.04-9.06,7.93-9.82,1.38-.22,2.55-3.67.64-3.37-6.8,1.06-11.86,7.91-11.27,14.69.19,2.22,2.83-.06,2.7-1.5h0Z" class="cls-1"></path>
    <path d="m845.42,288.32c-4.72,6.24-2.78,15.46,5.58,16.98,1.42.26,2.97-3.13,1.29-3.43-5.17-.94-9.08-6.85-5.49-11.61,1.15-1.51.13-3.95-1.38-1.95h0Z" class="cls-1"></path>
    <path d="m871.28,267.71c2.03-4.3,6.39-6.78,11-7.21,1.39-.13,2.58-3.55.64-3.37-6.31.59-11.37,4.73-14.02,10.36-.29.62-.26,1.67.54,1.83.87.17,1.55-1,1.83-1.6h0Z" class="cls-1"></path>
    <path d="m905.2,263.5c4.52-.58,8.93,1.17,11.91,4.59,1.12,1.28,3.27-1.74,2.33-2.83-3.47-3.98-8.38-5.79-13.6-5.13-1.39.18-2.57,3.62-.64,3.37h0Z" class="cls-1"></path>
    <path d="m930.15,256.05c3.59,1.68,5.78,5.23,5.5,9.21-.06.86.72,1.09,1.38.8.83-.38,1.26-1.45,1.33-2.3.33-4.58-2.14-9-6.33-10.96-1.41-.66-3.24,2.61-1.88,3.25h0Z" class="cls-1"></path>
    <path d="m949.04,283.51c-.77,3.95-3.67,6.92-7.49,8.07-1.33.4-2.43,3.91-.64,3.37,5.57-1.68,9.65-6.43,10.76-12.11.47-2.41-2.32-.9-2.63.67h0Z" class="cls-1"></path>
    <path d="m873.63,306.88c-6.79.57-12.22,5.74-13.6,12.35-.5,2.4,2.3.89,2.63-.67.96-4.6,5.06-7.87,9.68-8.26,1.45-.12,2.82-3.56,1.29-3.43h0Z" class="cls-1"></path>
    <path d="m850.89,330.7c-2.46,4.74-3.15,9.93-1.69,15.1.51,1.82,2.99-.88,2.6-2.24-1.12-3.97-.88-8.04,1.04-11.74,1.04-2.01-.89-3.17-1.95-1.12h0Z" class="cls-1"></path>
    <path d="m862.22,355.69c1.7,4.27,7.19,5.29,10.56,2.31.58-.52,1.25-1.61.93-2.42s-1.11-.69-1.67-.19c-2.2,1.94-6.17.7-7.22-1.93-.72-1.8-3.12.93-2.6,2.24h0Z" class="cls-1"></path>
    <path d="m890.1,317.47c.71-4.84,4.49-8.27,9.25-9.05,1.38-.23,2.55-3.69.64-3.37-6.49,1.07-11.57,6.66-12.51,13.09-.36,2.43,2.39.93,2.63-.67h0Z" class="cls-1"></path>
    <path d="m913.4,305.67c4.21-.12,8.18.72,11.97,2.59,1.39.69,3.23-2.58,1.88-3.25-3.94-1.95-8.15-2.9-12.55-2.77-1.46.04-2.87,3.48-1.29,3.43h0Z" class="cls-1"></path>
    <path d="m929.54,328.61c.87,3.99-1.6,7.67-5.51,8.63-1.36.33-2.48,3.83-.64,3.37,6.11-1.5,10.08-8.15,8.75-14.24-.4-1.81-2.9.87-2.6,2.24h0Z" class="cls-1"></path>
    <path d="m951.68,319.71c4.32-1.73,9.11.99,9.27,5.8.07,2.21,2.75-.07,2.7-1.5-.19-5.88-5.73-9.92-11.34-7.67-.82.33-1.51,1.12-1.63,2.02-.08.56.13,1.7,1,1.35h0Z" class="cls-1"></path>
    <path d="m900.98,343.17c-5.25,2.13-9.27,6.45-10.89,11.91-.71,2.37,1.82,2.1,2.38.22,1.19-4,3.98-7.18,7.88-8.76.82-.33,1.51-1.12,1.63-2.02.08-.56-.13-1.7-1-1.35h0Z" class="cls-1"></path>
    <path d="m896.81,365.09c-.54,3.36-.31,6.69.8,9.92.62,1.81,3.06-.9,2.6-2.24-.93-2.73-1.23-5.49-.77-8.35.39-2.42-2.38-.93-2.63.67h0Z" class="cls-1"></path>
    <path d="m913.35,385.33c1.42.36,2.84.71,4.26,1.07s2.96-3.01,1.29-3.43c-1.42-.36-2.84-.71-4.26-1.07s-2.96,3.01-1.29,3.43h0Z" class="cls-1"></path>
    <path d="m858.47,380.62c-5.9,3.57-9.86,9.59-10.65,16.46-.28,2.44,2.44.95,2.63-.67.62-5.37,3.43-9.89,8.08-12.7,1.21-.73,1.83-4.23-.05-3.09h0Z" class="cls-1"></path>
    <path d="m851.41,407.73c-1.9,6.76,4.45,12.31,10.86,9.57,1.33-.57,2-3.97-.05-3.09-4.62,1.97-9.52-2.36-8.18-7.15.2-.73-.2-1.47-1-1.35-.9.13-1.42,1.27-1.63,2.02h0Z" class="cls-1"></path>
    <path d="m902.85,407.2c2.83,1.35,4.7,5.51,2.33,8.1-1.31,1.43-.3,3.78,1.38,1.95,3.51-3.83,3.2-10.89-1.83-13.3-1.41-.67-3.23,2.6-1.88,3.25h0Z" class="cls-1"></path>
    <path d="m918.16,419.33c.41,3.68-1.82,6.74-5.42,7.57-1.36.32-2.49,3.8-.64,3.37,5.43-1.26,9.37-6.91,8.76-12.45-.24-2.21-2.86.06-2.7,1.5h0Z" class="cls-1"></path>
    <path d="m853.28,444.3c-6.22,4.09-10.39,10.43-11.55,17.81-.38,2.43,2.38.93,2.63-.67.91-5.82,4.03-10.8,8.97-14.05,1.17-.77,1.77-4.29-.05-3.09h0Z" class="cls-1"></path>
    <path d="m848.87,476.74c1.71,6.77,8.47,11.04,15.31,9.82,1.38-.25,2.54-3.71.64-3.37-5.95,1.06-11.87-2.87-13.34-8.69-.46-1.82-2.95.88-2.6,2.24h0Z" class="cls-1"></path>
    <path d="m878.18,465.54c1.56,4.15,5.59,6.56,9.98,6.04,1.39-.17,2.57-3.6.64-3.37-3.4.4-6.81-1.71-8.01-4.9-.68-1.8-3.1.92-2.6,2.24h0Z" class="cls-1"></path>
    <path d="m922.51,465.85c2.47,3.58,1.88,8.71-2.09,10.92-1.24.69-1.88,4.17.05,3.09,5.76-3.22,8.22-11.27,4.36-16.85-.94-1.35-3.16,1.63-2.33,2.83h0Z" class="cls-1"></path>
    <path d="m903.08,487.19c-1.46,3.4-5.06,5.29-8.66,5.27-1.46,0-2.9,3.42-1.29,3.43,5.55.03,10.18-3.47,12.33-8.48.27-.64.27-1.65-.54-1.83s-1.58,1.01-1.83,1.6h0Z" class="cls-1"></path>
    <path d="m914.17,504.22c-2.17,5.36-7.8,8.26-13.43,7.8-1.45-.12-2.94,3.3-1.29,3.43,7.56.61,14.29-4.11,17.09-11.01.94-2.32-1.66-2-2.38-.22h0Z" class="cls-1"></path>
    <path d="m930.13,512.67c.16,4.31-4.08,6.37-7.87,5-1.49-.54-3.24,2.75-1.88,3.25,6.49,2.35,12.69-3.12,12.45-9.75-.08-2.21-2.76.07-2.7,1.5h0Z" class="cls-1"></path>
    <path d="m880.16,427.51c-4.04,3.56-5.97,8.81-5.01,14.12.33,1.8,2.85-.87,2.6-2.24-.63-3.5.46-6.92,3.14-9.28,1.2-1.05,1.11-4.23-.74-2.61h0Z" class="cls-1"></path>
    <path d="m886.8,449.78c-.58,3.3.55,6.9,3.56,8.69s6.7,1.01,9.32-1.09c1.26-1.01,1.18-4.15-.74-2.61-4.15,3.33-10.43-.44-9.52-5.65.42-2.42-2.35-.92-2.63.67h0Z" class="cls-1"></path>
    <path d="m1049.94,207.5c-6.04-3.04-12.91-2.7-18.65.86-1.2.74-1.81,4.25.05,3.09,5.18-3.21,11.28-3.44,16.72-.7,1.39.7,3.23-2.57,1.88-3.25h0Z" class="cls-1"></path>
    <path d="m1050.94,216.8c-5.66,6.21-13.7,8.95-21.97,8-1.44-.17-2.95,3.24-1.29,3.43,9.44,1.08,18.28-2.5,24.64-9.48,1.31-1.43.3-3.79-1.38-1.95h0Z" class="cls-1"></path>
    <path d="m1028.04,224.95c-7.85-4.76-12.64-12.79-12.93-21.99l-1.33,2.3c4.6-2.66,8.54-5.91,12.06-9.89l-2.04-.22c-.4,6.13,1.31,11.71,5.09,16.56,1.03,1.32,3.22-1.68,2.33-2.83-3.51-4.49-5.08-9.54-4.71-15.23.1-1.47-1.48-.86-2.04-.22-3.14,3.55-6.63,6.37-10.73,8.75-.76.44-1.35,1.41-1.33,2.3.31,9.86,5.3,18.6,13.76,23.73,1.3.79,3.2-2.44,1.88-3.25h0Z" class="cls-1"></path>
    <path d="m1050.91,210.65c1.12-1.55,2.39-3.54,4.37-4.06s3.83.24,4.21,2.32c.75,4.04-3.79,6.78-7.24,6.83-1.46.02-2.88,3.45-1.29,3.43,5.93-.08,11.71-5.41,11.29-11.59-.19-2.88-2.25-4.72-5.11-4.54-3.43.22-5.75,3.09-7.61,5.67-1.11,1.53-.09,3.98,1.38,1.95h0Z" class="cls-1"></path>
    <path d="m1056.89,210.69v-.02c-.04.15-.08.3-.12.44v-.02c-.07.15-.14.3-.21.45v-.02c-.09.14-.18.27-.28.41h.01c-.11.1-.21.21-.32.32,0,0,.02-.02.03-.02l-.34.24s.02-.01.03-.02l-.34.14s.04,0,.06-.01l-.33.03s.05,0,.08,0l-.29-.09s.03.01.05.03l-.23-.21s.02.03.03.04l-.14-.3v.02c.11-.56.22-1.12.33-1.68,0,.02-.02.03-.03.04l.28-.41s-.02.03-.03.04l.32-.33s-.03.02-.04.03l.34-.24s-.04.03-.07.04l.34-.14s-.08.03-.13.03l.33-.03s-.08,0-.13-.01l.29.09s-.06-.03-.09-.05l.36.51s-.01-.03-.01-.05l.05.37s0-.05,0-.08l-.04.42s0-.05.02-.08l-.13.44s.01-.03.02-.05l-.21.45s.02-.03.03-.05l-.28.41s.03-.04.05-.06l-.32.33s.04-.04.06-.05l-.34.24s.03-.02.05-.03l-.34.14s.07-.02.1-.03l-.98-.57v.03c0-.12-.03-.25-.04-.37,0,.03,0,.05,0,.08l.04-.42v.03c.04-.15.08-.3.12-.44,0,.02-.01.04-.02.05l.21-.45s-.02.03-.03.05l.28-.41s-.02.03-.04.04l.32-.33s-.03.03-.04.04l.34-.24s-.05.03-.07.04l.34-.14s-.05.01-.08.02l.33-.03s-.04,0-.06,0c-.18-.02-.34.02-.5.1-.19.06-.36.17-.51.31-.19.15-.34.33-.46.54-.15.2-.27.42-.36.66l-.13.44c-.05.26-.05.52.01.78l.14.3c.13.18.3.28.52.3.63.08,1.23-.4,1.6-.85.12-.15.23-.31.33-.48.09-.16.17-.34.23-.5.15-.44.23-.91.11-1.37-.05-.22-.18-.39-.36-.51-.2-.1-.4-.12-.62-.06-.17.02-.34.11-.48.18-.27.15-.56.41-.75.64-.35.44-.64.97-.73,1.54-.02.15-.04.32-.04.47,0,.12.03.3.06.42.07.23.21.46.44.57.28.13.58.15.88.06.64-.2,1.13-.69,1.46-1.26.15-.26.31-.61.35-.92.04-.25.07-.56-.02-.8-.04-.1-.09-.25-.16-.33-.05-.07-.18-.18-.25-.23-.34-.23-.8-.1-1.13.07-.12.06-.27.17-.38.26-.12.1-.25.24-.35.35-.21.24-.29.41-.41.67s-.2.41-.24.71c-.05.34-.07.79.15,1.08.19.26.54.36.85.27.4-.11.76-.39,1.01-.71.3-.38.55-.83.62-1.31h0Z" class="cls-1"></path>
    <path d="m1057.21,217.85c1.94,1.32,3.89,2.64,5.83,3.96,1.24.84,3.17-2.37,1.88-3.25-1.94-1.32-3.89-2.64-5.83-3.96-1.24-.84-3.17,2.37-1.88,3.25h0Z" class="cls-1"></path>
    <path d="m1028.44,228.05c-1,3.63-1.51,7.32-1.59,11.08-.05,2.19,2.67-.08,2.7-1.5.08-3.49.6-6.88,1.52-10.25.21-.76-.21-1.43-1-1.35-.88.09-1.44,1.31-1.63,2.02h0Z" class="cls-1"></path>
    <path d="m1032.78,228.47c.46,3.2.92,6.4,1.37,9.6.13.9,1.22.55,1.67.19.72-.58,1.06-1.53.93-2.42-.46-3.2-.92-6.4-1.37-9.6-.13-.9-1.22-.55-1.67-.19-.72.58-1.06,1.53-.93,2.42h0Z" class="cls-1"></path>
    <path d="m1027.28,218.75c2.8,5.9,10.03,3.59,14.57,1.57,1.32-.59,1.98-4-.05-3.09-3.88,1.73-9.81,3.7-12.19-1.31-.66-1.38-2.95,1.51-2.33,2.83h0Z" class="cls-1"></path>
    <path d="m820.52,558.82c.2,12.31,5.95,24.2,16.03,31.45,11.66,8.39,26.72,8.81,40.42,6.9,1.94-.27,3.58-5.1.89-4.72-12.67,1.77-26.45,1.37-37.47-5.89-9.96-6.56-15.88-18.02-16.08-29.84-.05-3.09-3.82.1-3.79,2.1h0Z" class="cls-1"></path>
    <path d="m876.43,583.62c-10.3-1.28-21.95-.07-31.73-4.09s-11.81-14.49-13.05-23.87c-.41-3.1-4.05.08-3.79,2.1,1.21,9.08,2.89,19.66,11.38,24.9,10.02,6.19,24.16,4.36,35.38,5.76,2.02.25,4.14-4.51,1.81-4.8h0Z" class="cls-1"></path>
    <path d="m862.21,553.95c4.84,10.54,8.12,21.92,11.21,33.08.71,2.55,4.17-1.23,3.64-3.13-3.1-11.16-6.38-22.54-11.21-33.08-1.14-2.48-4.47,1.34-3.64,3.13h0Z" class="cls-1"></path>
    <path d="m877.27,550.19c3.65,12.46,7.3,24.93,10.95,37.39.75,2.55,4.2-1.24,3.64-3.13-3.65-12.46-7.3-24.93-10.95-37.39-.75-2.55-4.2,1.24-3.64,3.13h0Z" class="cls-1"></path>
    <path d="m890.08,588.11c5.62-1.38,11.85-3.24,15.38-8.19,1.9-2.66,2.61-5.76,2.96-8.96.29-2.74.61-5.08,1.9-7.57.71-1.36,1.42-2.65,1.94-4.09,1.19-3.28-2.41-2.86-3.33-.31-.78,2.15-2.14,4.01-2.98,6.12-.94,2.34-.95,4.6-1.26,7.06-.97,7.75-7.04,9.58-13.71,11.21-1.9.46-3.48,5.35-.89,4.72h0Z" class="cls-1"></path>
    <path d="m892.25,594.86c7.62-1.78,15.7-4.26,19.74-11.58,1.94-3.52,1.93-7.37,2.64-11.22,1.16-6.26,6.03-10.03,10.79-13.73,1.79-1.39,1.68-5.76-1.03-3.65-5.48,4.26-11.02,9.01-12.94,15.96-1.41,5.11-.39,10.55-4.96,14.31-3.75,3.09-8.75,4.12-13.36,5.2-1.91.45-3.49,5.33-.89,4.72h0Z" class="cls-1"></path>
    <path d="m875.52,596.14c-.54,20.06-3.53,39.87-8.87,59.21-.91,3.29,3.1,1.18,3.68-.93,5.44-19.71,8.42-39.94,8.97-60.38.08-3.06-3.73.12-3.79,2.1h0Z" class="cls-1"></path>
    <path d="m890.86,594.04c1.62,20.36.22,40.77-3.58,60.82-.64,3.37,3.26,1.27,3.68-.93,3.87-20.41,5.33-41.26,3.68-61.99-.25-3.1-3.95.08-3.79,2.1h0Z" class="cls-1"></path>
    <path d="m922.05,648.72c-6.63,4.14-15.52,5.02-23.12,5.8-11.14,1.14-22.48,1.14-33.64.15-4.93-.44-9.85-1.08-14.68-2.13-2.24-.48-4.51-1.02-6.67-1.78-3.51-1.24-3.45-2.64-.46-4.2,7.84-4.09,18.6-4.98,27.29-4.7,2.04.07,4.08-4.73,1.81-4.8-9.76-.32-22.73.61-31.04,6.26-2.69,1.83-5.73,5.52-4.24,9.03,1.69,3.99,10.1,4.74,13.78,5.44,13.34,2.53,27.23,2.86,40.75,1.96,9.86-.65,21.68-1.33,30.31-6.71,1.67-1.04,2.53-5.95-.07-4.33h0Z" class="cls-1"></path>
    <path d="m891.76,643.43c4.73.2,9.41.74,14.04,1.71,2.81.59,5.6,1.33,8.34,2.23,1.41.47,6.25,3.14,7.6,1.84-1.6,1.52-1.45,6.02,1.03,3.65,10.96-10.47-24.46-14.04-29.2-14.24-2.04-.09-4.09,4.7-1.81,4.8h0Z" class="cls-1"></path>
    <path d="m836.35,650.86c-.56,5.38.94,10.04,2.75,15.06,1.49,4.11,7.07,4.85,10.99,6.06,10.41,3.22,21.35,4.62,32.23,4.15,10.42-.45,20.77-2.51,30.54-6.18,4.11-1.54,7.37-2.34,9.27-6.46,2.19-4.77,3.56-9.6,3.36-14.87-.11-3.09-3.86.09-3.79,2.1.21,5.55-.85,11.7-6.34,13.88-3.73,1.48-7.56,2.72-11.44,3.73-7.85,2.03-15.94,3.08-24.05,3.07-7.68,0-15.36-.93-22.81-2.79-3.84-.96-9.35-1.91-12.64-4.17-3.68-2.54-4.8-10.64-4.39-14.53.36-3.41-3.44-1.34-3.68.93h0Z" class="cls-1"></path>
    <path d="m791.86,755.99c90.66,0,181.33,0,271.99,0,25.57,0,51.14,0,76.71,0,2.63,0,5.21-6.18,2.32-6.18-90.66,0-181.33,0-271.99,0-25.57,0-51.14,0-76.71,0-2.63,0-5.21,6.18-2.32,6.18h0Z" class="cls-1"></path>
    <path d="m790.22,754.56v158c0,4.84,5.95-.16,5.95-3.3v-158c0-4.84-5.95.16-5.95,3.3h0Z" class="cls-1"></path>
    <path d="m1140.91,912.93c2.63,0,5.21-6.18,2.32-6.18-2.63,0-5.21,6.18-2.32,6.18h0Z" class="cls-1"></path>
    <path d="m1139.1,754.56v155.69c0,4.84,5.95-.16,5.95-3.3v-155.69c0-4.84-5.95.16-5.95,3.3h0Z" class="cls-1"></path>
    <path d="m792.03,914.35h348.35c2.63,0,5.21-6.18,2.32-6.18h-348.35c-2.63,0-5.21,6.18-2.32,6.18h0Z" class="cls-1"></path>
    <path d="m1142.26,913.31c28.48-25.86,58.47-50,89.81-72.31,2.4-1.7,2.27-7.26-1.33-4.7-31.35,22.3-61.33,46.44-89.81,72.31-2.12,1.92-1.94,7.67,1.33,4.7h0Z" class="cls-1"></path>
    <path d="m1238.58,686.06c-.01,49.17-.92,98.33-.93,147.49,0,3.96,4.87-.13,4.87-2.7.01-49.17.92-98.33.93-147.49,0-3.96-4.87.13-4.87,2.7h0Z" class="cls-1"></path>
    <path d="m1230.92,841.67l9.83-7.12c2.38-1.72,2.25-7.29-1.33-4.7l-9.83,7.12c-2.38,1.72-2.25,7.29,1.33,4.7h0Z" class="cls-1"></path>
    <path d="m793.3,755.58c20.09-14.68,40.18-29.36,60.28-44.04,2.37-1.73,2.24-7.3-1.33-4.7-20.09,14.68-40.18,29.36-60.28,44.04-2.37,1.73-2.24,7.3,1.33,4.7h0Z" class="cls-1"></path>
    <path d="m1056.81,690.95c61.02-1.05,122.03-2.1,183.05-3.15l1.11-5.87c-32.69,22.42-65.47,44.72-98.16,67.14-2.06,1.41-3.12,7.77.09,5.57,32.69-22.42,65.47-44.72,98.16-67.14.99-.68,4.28-5.92,1.11-5.87-61.02,1.05-122.03,2.1-183.05,3.15-2.63.05-5.19,6.22-2.32,6.18h0Z" class="cls-1"></path>
    <path d="m970.78,682.65c-19.24-.09-38.48.09-57.73,0-2.63-.01-5.21,6.16-2.32,6.18,19.24.09,38.48-.09,57.73,0,2.63.01,5.21-6.16,2.32-6.18h0Z" class="cls-1"></path>
    <path d="m1071.26,719.08c-7.96-18.39-15.72-36.88-23.68-55.27-.11-.26-.3-.61-.66-.6-27.56.68-55.11,1.53-82.64,2.93-1.38.07-2.37,1.92-1.81,3.13,8.5,18.22,17.01,36.44,25.87,54.49.13.18.3.28.52.3,26.82-.72,53.64-1.44,80.45-2.16,1.46-.04,2.87-3.47,1.29-3.43-16.35.44-32.7.88-49.06,1.31l-25.51.68c-1.36.04-4.63.58-5.81-.43-.49-.42-1.1-2.26-1.39-2.84-1.11-2.28-2.21-4.57-3.31-6.86-7.01-14.59-13.89-29.24-20.74-43.9l-1.81,3.13c23.93-1.22,47.88-2.03,71.83-2.66,2.66-.07,6.3-.86,8.84-.23,2.87.71,3.44,4.26,4.48,6.68,2.3,5.34,4.58,10.68,6.86,16.03,4.54,10.64,9.06,21.29,13.66,31.91.77,1.78,3.16-.94,2.6-2.24Z" class="cls-1"></path>
    <path d="m1070.33,721.5c11.37-8.26,23.01-16.15,34.39-24.41,1.32-.96,1.25-4.05-.74-2.61-11.37,8.26-23.01,16.15-34.39,24.41-1.32.96-1.25,4.05.74,2.61h0Z" class="cls-1"></path>
    <path d="m1105.05,693.73c-14.81.43-29.62.8-44.43,1.23-1.46.04-2.87,3.48-1.29,3.43,14.81-.43,29.62-.8,44.43-1.23,1.46-.04,2.87-3.48,1.29-3.43h0Z" class="cls-1"></path>
    <path d="m1063.46,702.74c3.3-.1,6.59-.19,9.89-.29.88-.03,1.72-2.09.77-2.06-3.3.1-6.59.19-9.89.29-.88.03-1.72,2.09-.77,2.06h0Z" class="cls-1"></path>
    <path d="m1077.63,702.37c1.95-.07,3.89-.14,5.84-.21.87-.03,1.72-2.09.77-2.06-1.95.07-3.89.14-5.84.21-.87.03-1.72,2.09-.77,2.06h0Z" class="cls-1"></path>
    <path d="m1086.95,702.21h2.4c.53,0,.93-.51,1.1-.96.11-.3.21-1.1-.33-1.1h-2.4c-.53,0-.93.51-1.1.96-.11.3-.21,1.1.33,1.1h0Z" class="cls-1"></path>
    <path d="m1066.69,706.79c1.42-.08,2.84-.16,4.27-.23.53-.03.92-.49,1.1-.96.1-.28.21-1.12-.33-1.1-1.42.08-2.84.16-4.27.23-.53.03-.92.49-1.1.96-.1.28-.21,1.12.33,1.1h0Z" class="cls-1"></path>
    <path d="m1075.56,706.59c1.34-.06,2.68-.11,4.02-.17.87-.04,1.72-2.1.77-2.06-1.34.06-2.68.11-4.02.17-.87.04-1.72,2.1-.77,2.06h0Z" class="cls-1"></path>
    <path d="m1066.96,711.24c1.56,0,3.11,0,4.67,0,.88,0,1.74-2.06.77-2.06-1.56,0-3.11,0-4.67,0-.88,0-1.74,2.06-.77,2.06h0Z" class="cls-1"></path>
    <path d="m1076.01,710.95l2.74.03c.88.01,1.74-2.05.77-2.06l-2.74-.03c-.88-.01-1.74,2.05-.77,2.06h0Z" class="cls-1"></path>
    <path d="m1108.55,705.34c-1.42,11.81.67,27.12,15.69,26.14,13.15-.85,12.56-17.09,12.45-27.05-.02-2.2-2.72.07-2.7,1.5.05,4.9-.21,9.8-1.13,14.63-.63,3.34-1.27,6.23-5.04,7.17-1.93.48-4.07.47-6.04.25-10.99-1.17-11.63-14.73-10.6-23.32.29-2.44-2.43-.95-2.63.67h0Z" class="cls-1"></path>
    <path d="m1135.51,710.2c3.05-.27,8.13-.56,8.82,3.47.82,4.82-5.48,5.82-8.9,5.87-1.46.02-2.88,3.45-1.29,3.43,5.57-.08,11.49-2.24,12.77-8.32.48-2.3.06-4.76-1.79-6.35-2.26-1.95-5.56-1.78-8.32-1.53-1.45.13-2.82,3.57-1.29,3.43h0Z" class="cls-1"></path>
    <path d="m794.24,913.08c.03,2.12.07,4.25.1,6.37.02,1.62-.29,3.69.3,5.25.92,2.43,4.15,2.37,6.26,2.17,7.48-.7,6.97-9.29,6.27-15.03-.27-2.21-2.88.06-2.7,1.5.3,2.49.49,5.12.11,7.62-.23,1.49-.23,2.08-1.81,2.39-.88.17-1.91.24-2.81.18-3.11-.21-2.87-2.5-2.91-5.1-.04-2.29-.07-4.57-.11-6.86s-2.73.07-2.7,1.5h0Z" class="cls-1"></path>
    <path d="m1137.08,912.58c.43,2.47.85,4.94,1.29,7.4.27,1.53.39,3.4,1.5,4.6,1.72,1.85,5.63,1.41,7.72.37,2.21-1.1,3.25-3.19,3.45-5.59.43-5.1.02-10.41.02-15.53,0-2.2-2.71.07-2.7,1.5,0,2.63,0,5.26,0,7.89,0,2.32.92,7.26-1.39,8.79-1.02.67-2.93.41-3.93-.12-1.39-.74-1.47-1.21-1.82-2.68-.69-2.9-1.03-5.94-1.54-8.88-.31-1.8-2.84.87-2.6,2.24h0Z" class="cls-1"></path>
    <path d="m1230.69,839.04c.21,3.28.42,6.57.64,9.85.02.38.2.98.71.96,2.55-.09,5.09.04,7.64-.05,1.23-.04,1.91-1.39,2-2.47.42-5.23.54-10.5.54-15.75,0-2.2-2.71.07-2.7,1.5,0,5.25-.11,10.51-.54,15.75l2-2.47c-2.55.09-5.09-.04-7.64.05l.71.96c-.21-3.28-.42-6.57-.64-9.85-.14-2.21-2.8.06-2.7,1.5h0Z" class="cls-1"></path>
    <path d="m1063.96,686.81c1.64-22.81,3.28-45.61,4.92-68.42.74-10.25.9-21.15,4.73-30.84s12.3-16.87,22.17-20.88c10.51-4.27,21.99-5.22,33.2-5.94,9.95-.64,20.41-1.79,30.17.92,9.77,2.71,17.5,9.4,19.54,19.59,1.97,9.83.32,20.65-.26,30.56-1.45,24.72-3.52,49.41-5.54,74.09-.25,3.02,3.63-.15,3.79-2.1,2.05-25,4.14-50,5.59-75.04.59-10.22,2.21-21.3-.09-31.4-2.16-9.47-8.99-16.21-17.99-19.48-10.39-3.78-21.67-2.68-32.47-2-11.41.72-23.07,1.55-33.87,5.6-8.66,3.25-16.75,8.46-22.28,15.99-5.85,7.97-8.14,17.74-9.22,27.41-3.09,27.87-4.18,56.08-6.19,84.05-.22,3.03,3.64-.15,3.79-2.1h0Z" class="cls-1"></path>
    <path d="m1148.63,560c10.85.38,27.37,2.49,34.27,12.04,7.72,10.7,6.58,24.94,6.29,37.44-.58,25.37-3.03,50.62-4.34,75.95l3.71-2.62c-.14-.68-.28-1.36-.42-2.03-.52-2.53-4.04,1.22-3.64,3.13.14.68.28,1.36.42,2.03.57,2.76,3.65-1.38,3.71-2.62,1.4-27.2,4.11-54.32,4.44-81.57.14-11.93.31-26.31-8.48-35.63-7.84-8.32-23.4-10.56-34.16-10.93-2.04-.07-4.08,4.72-1.81,4.8h0Z" class="cls-1"></path>
  </g>
  <path d="m906.17,715.71c3.68,3.04,7.01,7.57,4.6,12.45-1.57,3.17-4.84,5.35-7.91,6.9-7.15,3.61-15.52,4.81-23.45,4.59-7.37-.21-15.04-1.62-21.52-5.27-7.67-4.33-12.08-12-3.69-18.94,1.24-1.03,1.15-4.18-.74-2.61-6.65,5.51-9.44,14-2.84,20.76,7.61,7.78,20.59,9.8,30.95,9.5,9.78-.29,21.33-2.6,28.37-9.99,6.4-6.71,5.08-14.86-1.9-20.62-1.12-.92-3.1,2.24-1.88,3.25h0Z" class="cls-1"></path>
  <path d="m843.08,669.96c2.77,15.99,6.16,31.89,10.26,47.59,3.1,11.86,17.28,14.82,28.09,14.39,9.42-.37,22.78-3.8,25.89-14.15,2.28-7.57,2.93-16.05,4.31-23.84,1.61-9.03,3.22-18.06,4.83-27.09.6-3.37-3.27-1.28-3.67.93-2.53,14.19-5.06,28.38-7.59,42.57-.58,3.23-.57,7.36-2.76,9.92-1.83,2.14-4.68,3.55-7.27,4.54-5.94,2.27-12.55,2.78-18.83,2.09-5.37-.59-11.31-2.1-15.52-5.68s-4.76-10.21-6.02-15.4c-3.13-12.9-5.84-25.91-8.1-38.99-.43-2.51-3.96,1.21-3.63,3.12h0Z" class="cls-1"></path>
  <path d="m1133.96,704.9c-.55,3.44-10.19,3.34-12.45,3.2-2.46-.15-10.63-1.07-9.5-4.4s9.85-2.84,12.46-2.62c2.92.25,8.91.93,9.5,4.62.29,1.84,2.89-.89,2.66-2.29-1.48-9.21-28.44-8.45-28.17,1.91.16,6.1,11.2,6.5,15.18,6.28,4.78-.26,12.09-1.66,13.01-7.39.4-2.48-2.43-.95-2.69.68Z" class="cls-1"></path>
</svg>