<svg id="visual" viewBox="0 0 600 600" width="600" height="600" xmlns="http://www.w3.org/2000/svg" xmlns:xlink="http://www.w3.org/1999/xlink" version="1.1"><rect x="0" y="0" width="600" height="600" fill="#002233"></rect><path d="M517 600L501.3 585.7C485.7 571.3 454.3 542.7 432 514.2C409.7 485.7 396.3 457.3 400.2 428.8C404 400.3 425 371.7 424.8 343C424.7 314.3 403.3 285.7 413.2 257C423 228.3 464 199.7 475.3 171.2C486.7 142.7 468.3 114.3 469 85.8C469.7 57.3 489.3 28.7 499.2 14.3L509 0L600 0L600 14.3C600 28.7 600 57.3 600 85.8C600 114.3 600 142.7 600 171.2C600 199.7 600 228.3 600 257C600 285.7 600 314.3 600 343C600 371.7 600 400.3 600 428.8C600 457.3 600 485.7 600 514.2C600 542.7 600 571.3 600 585.7L600 600Z" fill="#0066FF" stroke-linecap="round" stroke-linejoin="miter"></path></svg>