<svg id="visual" viewBox="0 0 600 600" width="600" height="600" xmlns="http://www.w3.org/2000/svg" xmlns:xlink="http://www.w3.org/1999/xlink" version="1.1"><rect x="0" y="0" width="600" height="600" fill="#002233"></rect><path d="M335 600L325.8 587.5C316.7 575 298.3 550 286.5 525C274.7 500 269.3 475 279 450C288.7 425 313.3 400 316.7 375C320 350 302 325 311 300C320 275 356 250 363.3 225C370.7 200 349.3 175 336.8 150C324.3 125 320.7 100 323.7 75C326.7 50 336.3 25 341.2 12.5L346 0L600 0L600 12.5C600 25 600 50 600 75C600 100 600 125 600 150C600 175 600 200 600 225C600 250 600 275 600 300C600 325 600 350 600 375C600 400 600 425 600 450C600 475 600 500 600 525C600 550 600 575 600 587.5L600 600Z" fill="#0066FF" stroke-linecap="round" stroke-linejoin="miter"></path></svg>