<svg id="visual" viewBox="0 0 600 600" width="600" height="600" xmlns="http://www.w3.org/2000/svg" xmlns:xlink="http://www.w3.org/1999/xlink" version="1.1"><rect x="0" y="0" width="600" height="600" fill="#002233"></rect><path d="M0 515L14.3 499.3C28.7 483.7 57.3 452.3 85.8 430C114.3 407.7 142.7 394.3 171.2 398.2C199.7 402 228.3 423 257 422.8C285.7 422.7 314.3 401.3 343 411.2C371.7 421 400.3 462 428.8 473.3C457.3 484.7 485.7 466.3 514.2 467C542.7 467.7 571.3 487.3 585.7 497.2L600 507L600 601L585.7 601C571.3 601 542.7 601 514.2 601C485.7 601 457.3 601 428.8 601C400.3 601 371.7 601 343 601C314.3 601 285.7 601 257 601C228.3 601 199.7 601 171.2 601C142.7 601 114.3 601 85.8 601C57.3 601 28.7 601 14.3 601L0 601Z" fill="#0066FF" stroke-linecap="round" stroke-linejoin="miter"></path></svg>