<svg id="visual" viewBox="0 0 600 600" width="600" height="600" xmlns="http://www.w3.org/2000/svg" xmlns:xlink="http://www.w3.org/1999/xlink" version="1.1"><rect x="0" y="0" width="600" height="600" fill="#002233"></rect><path d="M0 83L14.3 98.7C28.7 114.3 57.3 145.7 85.8 168C114.3 190.3 142.7 203.7 171.2 199.8C199.7 196 228.3 175 257 175.2C285.7 175.3 314.3 196.7 343 186.8C371.7 177 400.3 136 428.8 124.7C457.3 113.3 485.7 131.7 514.2 131C542.7 130.3 571.3 110.7 585.7 100.8L600 91L600 0L585.7 0C571.3 0 542.7 0 514.2 0C485.7 0 457.3 0 428.8 0C400.3 0 371.7 0 343 0C314.3 0 285.7 0 257 0C228.3 0 199.7 0 171.2 0C142.7 0 114.3 0 85.8 0C57.3 0 28.7 0 14.3 0L0 0Z" fill="#0066FF" stroke-linecap="round" stroke-linejoin="miter"></path></svg>